<svg width="161" height="43" viewBox="0 0 161 43" fill="none" xmlns="http://www.w3.org/2000/svg">
<rect x="0.789483" y="0.535821" width="159.675" height="41.794" rx="3.75075" fill="black" stroke="#999999" stroke-width="1.07164"/>
<path d="M41.9696 21.68C41.9982 19.6038 43.087 17.6865 44.8555 16.5984C43.7325 14.9946 41.919 14.0142 39.962 13.953C37.8708 13.7334 35.9155 15.1868 34.8595 15.1868C33.8034 15.1868 32.1723 13.9739 30.4366 14.0157C28.1493 14.0912 26.0694 15.3613 24.9576 17.3617C22.5841 21.4604 24.3512 27.4936 26.6306 30.8081C27.7703 32.4288 29.0982 34.2482 30.813 34.1854C32.5278 34.1227 33.1447 33.1398 35.1941 33.1398C37.2435 33.1398 37.8185 34.1854 39.5961 34.1854C41.3736 34.1854 42.5656 32.5543 43.6635 30.9127C44.4796 29.757 45.1077 28.4795 45.5247 27.1276C43.3472 26.1975 41.9442 24.0476 41.9696 21.68Z" fill="white"/>
<path d="M38.6237 11.778C39.6194 10.585 40.1108 9.0509 39.9934 7.50146C38.4746 7.65947 37.0709 8.38369 36.062 9.52994C35.0663 10.6626 34.5622 12.1448 34.6608 13.6496C36.1988 13.6659 37.6593 12.9761 38.6237 11.778Z" fill="white"/>
<path fill-rule="evenodd" clip-rule="evenodd" d="M64.1782 33.9343H66.5622L62.0556 20.0278H59.2848L54.8096 33.9343H57.1204L58.3646 29.846H62.8816L64.1782 33.9343ZM61.3236 24.5448L62.4946 28.1835H58.7514L59.9957 24.5343C60.2954 23.3772 60.515 22.5024 60.6544 21.9099C60.9681 23.2692 61.1911 24.1475 61.3236 24.5448Z" fill="white"/>
<path fill-rule="evenodd" clip-rule="evenodd" d="M76.694 32.8469C77.6618 31.7283 78.1568 30.2773 78.0742 28.8004C78.1292 27.459 77.6943 26.1435 76.8509 25.099C76.0418 24.1425 74.828 23.6249 73.5776 23.7031C72.3273 23.7814 71.1875 24.4464 70.5041 25.4963L70.3786 23.907H68.4128C68.4686 25.0363 68.4965 26.1376 68.4965 27.2111V38.0227H70.7759V32.7424C71.3861 33.7079 72.4814 34.2556 73.62 34.1644C74.7867 34.1891 75.9073 33.7088 76.694 32.8469ZM75.1465 26.4687C75.6075 27.1877 75.8374 28.0306 75.8052 28.8841C75.8479 29.7873 75.6026 30.6807 75.1046 31.4354C74.6586 32.0741 73.9173 32.4409 73.1389 32.4078C72.4736 32.4304 71.833 32.1542 71.3927 31.6549C70.9428 31.1454 70.7035 30.4837 70.7235 29.8042V28.1312C70.7315 27.9014 70.7666 27.6732 70.8281 27.4516C70.9499 26.8883 71.2597 26.3832 71.7064 26.0191C72.1252 25.6674 72.6547 25.4748 73.2016 25.4754C73.9767 25.4542 74.7093 25.8284 75.1465 26.4687Z" fill="white"/>
<path fill-rule="evenodd" clip-rule="evenodd" d="M88.2375 32.8469C89.2053 31.7283 89.7002 30.2773 89.6177 28.8004C89.6717 27.4592 89.2369 26.1439 88.3943 25.099C87.5852 24.1425 86.3715 23.6249 85.1211 23.7031C83.8707 23.7814 82.731 24.4464 82.0475 25.4963L81.922 23.907H79.9563C80.0121 25.0363 80.0399 26.1376 80.0399 27.2111V38.0227H82.3194V32.7424C82.9296 33.7079 84.0248 34.2556 85.1634 34.1644C86.3304 34.1904 87.4515 33.71 88.2375 32.8469ZM86.6901 26.4688C87.1511 27.1878 87.381 28.0307 87.3488 28.8842C87.3888 29.771 87.1513 30.6483 86.6691 31.3936C86.2231 32.0324 85.4818 32.3992 84.7034 32.3661C84.0234 32.4185 83.3568 32.1565 82.8945 31.655C82.4454 31.145 82.2063 30.4837 82.2253 29.8043V28.1314C82.2338 27.9015 82.2689 27.6735 82.3299 27.4517C82.4509 26.8881 82.7608 26.3827 83.2082 26.0192C83.627 25.6675 84.1565 25.475 84.7034 25.4755C85.4931 25.4398 86.2449 25.8157 86.6901 26.4688Z" fill="white"/>
<path d="M102.479 30.0343C102.514 31.1314 102.062 32.188 101.245 32.9202C100.181 33.7878 98.83 34.2244 97.4596 34.1436C96.1991 34.203 94.9478 33.9019 93.8523 33.2757L94.3646 31.4145C95.3346 32.0044 96.4499 32.3122 97.5851 32.3033C98.2859 32.3475 98.9804 32.1481 99.5508 31.7387C100.011 31.3723 100.27 30.8102 100.251 30.2225C100.264 29.6895 100.056 29.175 99.6763 28.8005C99.1136 28.3237 98.4587 27.9677 97.7524 27.7549C95.3266 26.8208 94.1137 25.479 94.1137 23.7293C94.0763 22.6223 94.5601 21.5618 95.4207 20.8644C96.392 20.113 97.6038 19.7413 98.8294 19.8188C99.9127 19.7835 100.989 20.0094 101.966 20.4775L101.433 22.2969C100.613 21.8617 99.6951 21.6423 98.7666 21.659C98.1033 21.6175 97.448 21.8223 96.9264 22.2341C96.5685 22.5523 96.3664 23.0101 96.3722 23.4889C96.363 24.0162 96.5985 24.5182 97.01 24.8481C97.6265 25.3019 98.3112 25.6549 99.0385 25.8937C100.039 26.2465 100.945 26.8263 101.684 27.5876C102.247 28.2744 102.53 29.1479 102.479 30.0343Z" fill="white"/>
<path d="M109.892 25.58H107.435V30.4525C107.435 31.6933 107.867 32.3137 108.731 32.3137C109.065 32.3209 109.399 32.2857 109.725 32.2091L109.798 33.8925C109.238 34.0768 108.651 34.1617 108.062 34.1435C107.281 34.1938 106.517 33.8996 105.971 33.3384C105.4 32.557 105.136 31.5934 105.228 30.6303V25.58H103.765V23.907H105.228V22.0668L107.414 21.408V23.907H109.871L109.892 25.58Z" fill="white"/>
<path fill-rule="evenodd" clip-rule="evenodd" d="M119.658 32.6379C120.56 31.5842 121.031 30.2284 120.975 28.8424C121.037 27.5006 120.581 26.1864 119.7 25.1723C118.787 24.1865 117.487 23.6513 116.145 23.7085C114.773 23.6446 113.442 24.1876 112.506 25.1932C111.583 26.2449 111.1 27.6115 111.157 29.0097C111.109 30.3612 111.576 31.6806 112.464 32.7007C113.36 33.6859 114.647 34.2222 115.977 34.1645C117.37 34.2244 118.717 33.6656 119.658 32.6379ZM118.069 26.5316C118.484 27.2559 118.69 28.0811 118.665 28.9156C118.675 29.763 118.446 30.5963 118.006 31.3205C117.61 32.0648 116.836 32.5301 115.993 32.5301C115.15 32.5301 114.376 32.0648 113.98 31.3205C113.568 30.6024 113.362 29.7849 113.384 28.9574C113.356 28.1093 113.562 27.2697 113.98 26.5316C114.383 25.7572 115.2 25.2877 116.072 25.3291C116.912 25.3168 117.686 25.7831 118.069 26.5316Z" fill="white"/>
<path d="M128.222 25.8623C127.99 25.8202 127.756 25.7992 127.521 25.7996C126.802 25.7629 126.115 26.0987 125.702 26.6883C125.312 27.2754 125.118 27.9709 125.147 28.675V33.903H122.92V27.0334C122.92 25.8763 122.892 24.8307 122.837 23.8966H124.781L124.865 25.8205H124.928C125.14 25.1939 125.528 24.642 126.047 24.2312C126.512 23.8849 127.077 23.6979 127.657 23.6979C127.841 23.6836 128.027 23.6836 128.211 23.6979L128.222 25.8623Z" fill="white"/>
<path fill-rule="evenodd" clip-rule="evenodd" d="M138.113 29.4906C138.176 29.1457 138.204 28.7955 138.197 28.445C138.224 27.3401 137.914 26.253 137.308 25.3291C136.568 24.2579 135.324 23.6482 134.025 23.7189C132.664 23.6657 131.359 24.2636 130.511 25.3291C129.661 26.3994 129.22 27.7376 129.267 29.1037C129.199 30.4588 129.678 31.7844 130.595 32.7843C131.573 33.7342 132.904 34.2309 134.265 34.154C135.418 34.1826 136.564 33.9726 137.632 33.5371L137.287 31.9896C136.421 32.3144 135.503 32.474 134.579 32.4601C133.79 32.4943 133.015 32.2458 132.393 31.7596C131.748 31.1853 131.392 30.3538 131.421 29.4906H138.113ZM135.677 26.155C135.987 26.6714 136.136 27.2683 136.105 27.8698H131.463C131.513 27.2404 131.742 26.6384 132.122 26.1341C132.522 25.5493 133.191 25.2069 133.899 25.2244C134.618 25.1815 135.302 25.5396 135.677 26.155Z" fill="white"/>
<path fill-rule="evenodd" clip-rule="evenodd" d="M60.6545 14.2456C61.4104 13.5231 61.7954 12.4952 61.7001 11.4538C61.7717 10.5206 61.4227 9.60415 60.7486 8.95483C59.9683 8.37892 59.0078 8.1008 58.0405 8.17063C57.4067 8.16863 56.7739 8.21758 56.1479 8.31701V15.0193C56.6791 15.0789 57.2133 15.1068 57.7477 15.103C58.7876 15.1702 59.8176 14.8664 60.6545 14.2456ZM59.912 9.61359C60.3647 10.1155 60.5948 10.7794 60.5498 11.4539H60.5916C60.6595 12.2144 60.414 12.9697 59.912 13.5451C59.3649 14.019 58.6446 14.2426 57.9254 14.162C57.6782 14.1779 57.4302 14.1779 57.183 14.162V9.04897C57.4728 8.99677 57.7669 8.97226 58.0613 8.97577C58.7393 8.92786 59.4075 9.15816 59.912 9.61359Z" fill="white"/>
<path fill-rule="evenodd" clip-rule="evenodd" d="M67.2313 14.3607C67.6735 13.8438 67.9049 13.1793 67.8796 12.4995C67.9049 11.8374 67.6768 11.1905 67.2418 10.6906C66.7931 10.2066 66.1551 9.94296 65.4956 9.96917C64.8211 9.93891 64.1673 10.2065 63.7076 10.7011C63.2564 11.2175 63.0206 11.8875 63.0489 12.5727C63.0259 13.2395 63.2577 13.8901 63.6972 14.3921C64.1369 14.8765 64.7688 15.1407 65.4224 15.1135C66.107 15.1418 66.769 14.8663 67.2313 14.3607ZM66.4472 11.454C66.6295 11.773 66.7301 12.1322 66.7399 12.4996V12.5728C66.7646 13.0038 66.6628 13.4326 66.4472 13.8066C66.2679 14.1837 65.8815 14.418 65.4643 14.4026C65.0312 14.4289 64.6226 14.2001 64.4187 13.817C64.2152 13.4611 64.1139 13.0558 64.1259 12.646C64.1116 12.2292 64.2129 11.8167 64.4187 11.454C64.6206 11.069 65.0306 10.8394 65.4643 10.8684C65.8791 10.8512 66.2649 11.081 66.4472 11.454Z" fill="white"/>
<path d="M76.0878 10.1155L74.5507 15.0403H73.5051L72.8673 12.9491C72.7078 12.4265 72.5752 11.896 72.47 11.3598C72.375 11.8982 72.2422 12.4293 72.0726 12.9491L71.393 15.0403H70.3474L68.9463 10.1155H70.0651L70.6297 12.4995C70.7622 13.0502 70.8737 13.5765 70.9643 14.0784C71.048 13.6671 71.1839 13.1443 71.3721 12.51L72.0726 10.1574H72.9614L73.6306 12.4577C73.7909 13.0223 73.9234 13.5626 74.0279 14.0784C74.1105 13.5326 74.2222 12.9916 74.3625 12.4577L74.9585 10.1574H76.0041L76.0878 10.1155Z" fill="white"/>
<path d="M81.7757 15.0403H80.7301V12.2171C80.7301 11.3458 80.399 10.9101 79.7368 10.9101C79.4328 10.9075 79.1427 11.0372 78.9421 11.2656C78.7415 11.5018 78.6337 11.8028 78.6389 12.1126V15.0403H77.5933V11.527C77.5933 11.0948 77.5933 10.6243 77.5933 10.1155H78.4297V10.8892C78.5621 10.6442 78.7569 10.4386 78.9944 10.2932C79.292 10.1068 79.6365 10.0089 79.9877 10.0109C80.4164 9.99718 80.8321 10.1597 81.1379 10.4605C81.5441 10.9024 81.7486 11.4932 81.7025 12.0917L81.7757 15.0403Z" fill="white"/>
<path d="M84.7974 15.0404H83.6577V7.85706H84.7033L84.7974 15.0404Z" fill="white"/>
<path fill-rule="evenodd" clip-rule="evenodd" d="M90.6007 14.3607C91.0429 13.8437 91.2743 13.1793 91.249 12.4995C91.2695 11.8544 91.0496 11.2246 90.6321 10.7324C90.1834 10.2483 89.5454 9.98474 88.8859 10.011C88.2179 9.96993 87.5652 10.2219 87.0979 10.7011C86.6429 11.2159 86.4033 11.886 86.4287 12.5727C86.4028 13.2381 86.6308 13.8885 87.0666 14.392C87.5054 14.8776 88.1379 15.1422 88.7918 15.1135C89.4763 15.1418 90.1384 14.8663 90.6007 14.3607ZM89.8165 11.4538C89.9988 11.7729 90.0994 12.1321 90.1092 12.4994V12.5726C90.1403 12.9812 90.0571 13.3903 89.8688 13.7542C89.6895 14.1312 89.3031 14.3655 88.8859 14.3502C88.4528 14.3765 88.0442 14.1476 87.8403 13.7646C87.6459 13.424 87.5449 13.038 87.5475 12.6458C87.5332 12.2291 87.6345 11.8165 87.8403 11.4538C88.0241 11.0772 88.4151 10.8468 88.8336 10.8683C89.2484 10.851 89.6342 11.0808 89.8165 11.4538Z" fill="white"/>
<path fill-rule="evenodd" clip-rule="evenodd" d="M95.5673 15.0403H96.5501C96.4979 14.6418 96.4769 14.2397 96.4874 13.8379V12.0185C96.4874 10.6592 95.8426 9.97961 94.553 9.97961C93.9592 9.95919 93.3718 10.1079 92.8592 10.4083L93.0683 11.1611C93.4421 10.9198 93.8781 10.7927 94.323 10.7952C95.0201 10.7952 95.3686 11.1193 95.3686 11.7676V11.8094C94.6414 11.769 93.9172 11.9319 93.2774 12.2799C92.7906 12.5655 92.5011 13.0963 92.5246 13.6601C92.5033 14.0472 92.6434 14.4257 92.9114 14.7057C93.2065 15.0099 93.6174 15.1735 94.0407 15.1553C94.6053 15.1855 95.1473 14.9302 95.4836 14.4757L95.5673 15.0403ZM95.4105 12.5832V13.3361C95.4142 13.6438 95.2654 13.9335 95.0132 14.1098C94.8212 14.2576 94.5862 14.3384 94.344 14.3398C94.1487 14.3477 93.9578 14.2803 93.8107 14.1516C93.6616 13.9989 93.5854 13.7894 93.6016 13.5766C93.6016 12.9143 94.2046 12.5832 95.4105 12.5832Z" fill="white"/>
<path fill-rule="evenodd" clip-rule="evenodd" d="M101.809 15.0404H102.782C102.754 14.6361 102.747 14.1969 102.761 13.7229V7.85706H101.715V10.6697C101.415 10.2025 100.877 9.9438 100.325 10.0005C99.7384 9.99137 99.1786 10.2444 98.7981 10.6906C98.3549 11.2351 98.1278 11.9237 98.1603 12.625C98.1298 13.2822 98.3377 13.9283 98.7458 14.4444C99.1044 14.8966 99.6535 15.1557 100.231 15.1449C100.89 15.1903 101.512 14.8359 101.809 14.2457V15.0404ZM101.642 12.1231V12.9491V12.9596C101.657 13.28 101.557 13.5951 101.36 13.8483C101.154 14.1167 100.83 14.2687 100.492 14.2561C100.109 14.2663 99.7465 14.0812 99.5301 13.7647C99.2917 13.4144 99.1742 12.9959 99.1955 12.5727C99.1794 12.1308 99.3039 11.6952 99.551 11.3284C99.7674 11.0119 100.13 10.8269 100.513 10.837C100.783 10.8297 101.045 10.9271 101.245 11.1089C101.445 11.2837 101.585 11.5182 101.642 11.778C101.655 11.8927 101.655 12.0084 101.642 12.1231Z" fill="white"/>
<path fill-rule="evenodd" clip-rule="evenodd" d="M111.502 14.3607C111.945 13.8437 112.176 13.1793 112.151 12.4995C112.174 11.8557 111.958 11.2261 111.544 10.7324C111.096 10.2471 110.458 9.9833 109.798 10.0109C109.126 9.96681 108.469 10.219 108 10.701C107.545 11.2159 107.305 11.886 107.33 12.5727C107.304 13.2381 107.532 13.8885 107.968 14.392C108.408 14.8764 109.04 15.1407 109.693 15.1135C110.378 15.1432 111.041 14.8675 111.502 14.3607ZM110.718 11.4538C110.9 11.7728 111.001 12.132 111.011 12.4994V12.5726C111.03 12.9885 110.932 13.4014 110.729 13.7646C110.534 14.1301 110.154 14.3586 109.74 14.3586C109.327 14.3586 108.946 14.1301 108.752 13.7646C108.558 13.4239 108.457 13.038 108.46 12.6458C108.445 12.229 108.547 11.8165 108.752 11.4538C108.944 11.0898 109.324 10.8638 109.735 10.8682C110.15 10.851 110.536 11.0808 110.718 11.4538Z" fill="white"/>
<path d="M118.037 15.0402H116.992V12.217C116.992 11.3457 116.643 10.91 115.946 10.91C115.64 10.8984 115.347 11.0298 115.152 11.2655C114.95 11.5012 114.842 11.8026 114.848 12.1125V15.0402H113.803V11.5269C113.803 11.0948 113.803 10.6242 113.803 10.1154H114.765V10.8891C114.898 10.6447 115.092 10.4393 115.329 10.2931C115.642 10.0969 116.006 9.99855 116.375 10.0108C116.804 9.9971 117.219 10.1596 117.525 10.4604C117.931 10.9023 118.136 11.4931 118.09 12.0916L118.037 15.0402Z" fill="white"/>
<path d="M125.419 10.9311H124.217V13.3255C124.217 13.932 124.436 14.2352 124.855 14.2352C125.018 14.2561 125.183 14.2561 125.346 14.2352V15.0717C125.073 15.1628 124.786 15.2052 124.499 15.1972C124.109 15.2281 123.725 15.0823 123.453 14.7998C123.173 14.4171 123.042 13.9445 123.087 13.4719V10.9311H122.366V10.1155H123.087V9.21632L124.133 8.89218V10.1155H125.335V10.9311H125.419Z" fill="white"/>
<path d="M131.212 15.0404H130.166V12.2381C130.166 11.3529 129.835 10.9102 129.173 10.9102C128.69 10.8924 128.258 11.208 128.127 11.6735C128.108 11.8053 128.108 11.9391 128.127 12.0708V15.0404H127.082V7.85706H128.127V10.8266C128.437 10.3064 129.007 9.99743 129.612 10.0215C130.015 10.0004 130.41 10.1394 130.71 10.4083C131.109 10.8621 131.309 11.4576 131.264 12.0604L131.212 15.0404Z" fill="white"/>
<path fill-rule="evenodd" clip-rule="evenodd" d="M137.203 12.8446C137.219 12.6776 137.219 12.5096 137.203 12.3427C137.202 11.7951 137.03 11.2615 136.712 10.8161C136.351 10.2879 135.74 9.98663 135.101 10.0214C134.432 9.99479 133.791 10.2902 133.376 10.8161C132.961 11.3415 132.746 11.9975 132.77 12.6668C132.735 13.3322 132.968 13.9838 133.418 14.4757C133.897 14.9408 134.55 15.1836 135.216 15.1449C135.782 15.1566 136.344 15.0534 136.869 14.8417L136.701 14.0784C136.277 14.2373 135.826 14.3153 135.373 14.3084C134.995 14.3181 134.626 14.1961 134.328 13.9634C134.009 13.6805 133.833 13.2705 133.847 12.8446H137.203ZM135.948 11.2134C136.102 11.4681 136.175 11.7634 136.158 12.0603L133.889 12.0499C133.916 11.743 134.028 11.4497 134.213 11.2029C134.41 10.9187 134.735 10.7504 135.081 10.7533C135.432 10.7363 135.765 10.9128 135.948 11.2134Z" fill="white"/>
</svg>
