<svg width="28" height="28" viewBox="0 0 28 28" fill="none" xmlns="http://www.w3.org/2000/svg">
<path fill-rule="evenodd" clip-rule="evenodd" d="M5.83337 4.6665H22.1667C23.095 4.6665 23.9852 5.03525 24.6416 5.69163C25.298 6.34801 25.6667 7.23825 25.6667 8.1665L25.6667 12.8332C25.6667 13.4775 25.1444 13.9998 24.5 13.9998C23.8557 13.9998 23.3334 13.4775 23.3334 12.8332L23.3334 11.6665H4.66671V18.6665C4.66671 18.9759 4.78962 19.2727 5.00842 19.4915C5.22721 19.7103 5.52396 19.8332 5.83337 19.8332L16.3334 19.8332C16.9777 19.8332 17.5 20.3555 17.5 20.9998C17.5 21.6442 16.9777 22.1665 16.3334 22.1665L5.83337 22.1665C4.90512 22.1665 4.01488 21.7978 3.3585 21.1414C2.70212 20.485 2.33337 19.5948 2.33337 18.6665V8.1665C2.33337 7.23825 2.70212 6.34801 3.3585 5.69163C4.01488 5.03525 4.90512 4.6665 5.83337 4.6665ZM11.6667 16.3332H8.1667C7.85728 16.3332 7.56054 16.2103 7.34175 15.9915C7.12295 15.7727 7.00004 15.4759 7.00004 15.1665C7.00004 14.8571 7.12295 14.5603 7.34175 14.3415C7.56054 14.1228 7.85728 13.9998 8.1667 13.9998H11.6667C11.9761 13.9998 12.2729 14.1228 12.4917 14.3415C12.7105 14.5603 12.8334 14.8571 12.8334 15.1665C12.8334 15.4759 12.7105 15.7727 12.4917 15.9915C12.2729 16.2103 11.9761 16.3332 11.6667 16.3332ZM4.66671 9.33317H23.3334V8.1665C23.3334 7.85708 23.2105 7.56034 22.9917 7.34155C22.7729 7.12275 22.4761 6.99984 22.1667 6.99984H5.83338C5.52396 6.99984 5.22721 7.12275 5.00842 7.34155C4.78963 7.56034 4.66671 7.85708 4.66671 8.1665V9.33317Z" fill="#49D600"/>
<path d="M23.2003 16.518L22.72 15.0771C22.5427 14.5453 21.7904 14.5453 21.6132 15.0771L21.1329 16.518C21.0535 16.7562 20.8305 16.9169 20.5795 16.9169H19.1629C18.6114 16.9169 18.3679 17.6113 18.7985 17.9557L20.0699 18.9729C20.2747 19.1368 20.345 19.4172 20.2417 19.6582L19.4396 21.5299C19.211 22.0632 19.8165 22.5669 20.2993 22.2451L21.843 21.2159C22.0389 21.0853 22.2942 21.0853 22.4901 21.2159L24.0338 22.2451C24.5166 22.5669 25.1221 22.0632 24.8936 21.5299L24.0914 19.6582C23.9881 19.4172 24.0584 19.1368 24.2632 18.9729L25.5347 17.9557C25.9653 17.6113 25.7217 16.9169 25.1703 16.9169H23.7537C23.5026 16.9169 23.2797 16.7562 23.2003 16.518Z" fill="#49D600"/>
</svg>
