<svg width="344" height="141" viewBox="0 0 344 141" fill="none" xmlns="http://www.w3.org/2000/svg">
<g clip-path="url(#clip0_164_4780)">
<path d="M314.218 52.6221H50.8315L80.1374 9.4668H343.524L314.218 52.6221Z" fill="#333333"/>
<path d="M76.0552 39.0192L85.2715 22.4733H97.3833L95.2868 26.194H87.461L86.0214 28.7734H93.699L91.6276 32.494H83.9501L80.316 39.018H76.0564L76.0552 39.0192Z" fill="white"/>
<path d="M101.712 39.0192L102.217 36.6374H95.7025L93.5871 39.0192H88.5349L103.967 22.4733H109.317L106.342 39.0192H101.711H101.712ZM104.503 26.6897L98.9383 32.9155H103.149L104.503 26.6897Z" fill="white"/>
<path d="M108.812 36.1656L112.449 33.0892C113.079 34.6028 114.957 35.6447 117.21 35.6447C118.572 35.6447 119.359 34.925 119.56 34.3298C120.178 32.494 112.137 32.6928 113.758 27.8801C114.703 25.0767 118.042 22.2242 122.426 22.2242C125.101 22.2242 127.35 23.1918 128.416 24.9534L124.812 27.9304C124.001 26.5161 122.162 25.8719 120.528 25.8719C119.562 25.8719 118.743 26.3928 118.525 27.0383C117.94 28.7747 125.964 28.7004 124.351 33.488C123.256 36.7381 119.812 39.3175 115.625 39.3175C112.257 39.3175 109.711 38.053 108.81 36.1668L108.812 36.1656Z" fill="white"/>
<path d="M127.264 39.0192L134.384 26.194H129.753L131.849 22.4733H145.346L143.275 26.194H138.644L131.524 39.0192H127.264Z" fill="white"/>
<path d="M150.169 39.0192L157.289 26.194H152.658L154.754 22.4733H168.251L166.18 26.194H161.549L154.429 39.0192H150.169Z" fill="white"/>
<path d="M172.184 39.0192L172.689 36.6374H166.175L164.06 39.0192H159.007L174.439 22.4733H179.789L176.814 39.0192H172.183H172.184ZM174.977 26.6897L169.412 32.9155H173.623L174.977 26.6897Z" fill="white"/>
<path d="M189.716 39.0192L188.954 33.7107L182.534 39.0192H177.259L188.003 30.287L186.846 22.4733H191.651L192.257 27.4346L198.09 22.4733H203.366L193.259 30.784L194.521 39.0192H189.716Z" fill="white"/>
<path d="M204.522 39.0193L213.725 22.4973H221.713C224.606 22.4973 225.842 24.6275 224.966 27.2283C224.148 29.6554 221.256 33.4704 215.814 33.4704H211.857L208.776 39.0193H204.522ZM217.289 29.7548C218.649 29.7548 219.996 28.913 220.404 27.6988C220.713 26.7828 220.213 26.2128 219.198 26.2128H215.909L213.925 29.7548H217.289Z" fill="white"/>
<path d="M231.03 39.0193L231.535 36.6412H225.03L222.919 39.0193H217.874L233.283 22.4973H238.624L235.655 39.0193H231.03ZM233.817 26.7086L228.26 32.9256H232.464L233.817 26.7086Z" fill="white"/>
<path d="M240.424 39.0193L244.129 32.3556L243.37 22.4973H247.946L248.142 28.5909L255.067 22.4973H260.112L248.382 32.3556L244.679 39.0193H240.424Z" fill="white"/>
<path d="M255.932 31.8108C257.727 26.4847 263.315 22.2242 268.905 22.2242C273.628 22.2242 276.261 25.1962 274.751 29.6806C272.949 35.0307 267.35 39.3162 261.761 39.3162C257.038 39.3162 254.404 36.3443 255.932 31.8108ZM270.216 30.0027C271.027 27.5995 269.838 25.9902 267.39 25.9902C264.496 25.9902 261.477 28.4916 260.451 31.539C259.642 33.941 260.829 35.5516 263.278 35.5516C266.17 35.5516 269.19 33.0502 270.216 30.0027Z" fill="white"/>
<path d="M275.91 33.4213C276.002 33.1483 276.268 32.5796 276.402 32.3317L281.891 22.4973H286.218L280.788 32.2323C280.696 32.3556 280.581 32.6286 280.48 32.9256C280.046 34.2883 280.641 35.6006 282.744 35.6006C285.019 35.6006 286.664 34.1637 287.737 32.2323L293.169 22.4973H297.471L292.015 32.3065C289.773 36.3191 286.586 39.3162 281.493 39.3162C276.399 39.3162 274.742 36.889 275.912 33.4213H275.91Z" fill="white"/>
<path d="M295.907 39.0193L303.016 26.2128H298.392L300.484 22.4973H313.962L311.893 26.2128H307.269L300.159 39.0193H295.906H295.907Z" fill="white"/>
<path d="M-0.678955 131.421L10.2533 115.32H273.64L262.19 132.181L-0.678955 131.421Z" fill="#333333"/>
<path d="M15.2818 127.437V122.815L14.3045 123.829L13.6953 123.192L15.4162 121.451H16.3307V127.437H15.2818Z" fill="white"/>
<path d="M18.2297 124.449C18.2297 122.942 18.947 121.361 20.6227 121.361C22.2984 121.361 23.0156 122.94 23.0156 124.449C23.0156 125.958 22.2984 127.545 20.6227 127.545C18.947 127.545 18.2297 125.956 18.2297 124.449ZM21.9492 124.449C21.9492 123.309 21.6 122.295 20.6227 122.295C19.6454 122.295 19.2962 123.309 19.2962 124.449C19.2962 125.589 19.6454 126.612 20.6227 126.612C21.6 126.612 21.9492 125.589 21.9492 124.449Z" fill="white"/>
<path d="M24.6462 124.449C24.6462 122.942 25.3635 121.361 27.0392 121.361C28.7149 121.361 29.4322 122.94 29.4322 124.449C29.4322 125.958 28.7149 127.545 27.0392 127.545C25.3635 127.545 24.6462 125.956 24.6462 124.449ZM28.3644 124.449C28.3644 123.309 28.0152 122.295 27.0379 122.295C26.0607 122.295 25.7115 123.309 25.7115 124.449C25.7115 125.589 26.0607 126.612 27.0379 126.612C28.0152 126.612 28.3644 125.589 28.3644 124.449Z" fill="white"/>
<path d="M39.0995 127.437L37.935 123.021L36.7794 127.437H35.6589L33.948 121.451H35.1212L36.2857 126.065L37.5217 121.451H38.3546L39.5906 126.065L40.7463 121.451H41.9195L40.2174 127.437H39.0969H39.0995Z" fill="white"/>
<path d="M43.5173 127.437V121.451H44.5662V127.437H43.5173Z" fill="white"/>
<path d="M50.9 127.437L47.7823 123.164V127.437H46.7334V121.451H47.8087L50.8649 125.607V121.451H51.9137V127.437H50.9013H50.9Z" fill="white"/>
<path d="M58.2482 127.437L55.1292 123.164V127.437H54.0803V121.451H55.1556L58.2118 125.607V121.451H59.2607V127.437H58.2482Z" fill="white"/>
<path d="M61.4287 127.437V121.451H65.5237V122.375H62.4776V123.928H65.4609V124.853H62.4776V126.514H65.5237V127.439H61.4287V127.437Z" fill="white"/>
<path d="M70.9088 127.437L69.5823 125.203H68.5435V127.437H67.4946V121.451H70.12C71.3033 121.451 72.0733 122.222 72.0733 123.327C72.0733 124.431 71.3749 124.969 70.6576 125.086L72.1185 127.437H70.9088ZM70.998 123.327C70.998 122.752 70.5684 122.375 69.9768 122.375H68.5435V124.278H69.9768C70.5684 124.278 70.998 123.9 70.998 123.327Z" fill="white"/>
<path d="M73.6321 126.593L74.2149 125.785C74.6269 126.226 75.2726 126.611 76.1054 126.611C76.9383 126.611 77.3063 126.189 77.3063 125.794C77.3063 124.537 73.8205 125.318 73.8205 123.11C73.8205 122.122 74.6898 121.36 75.9974 121.36C76.9295 121.36 77.6819 121.656 78.2371 122.194L77.6367 122.976C77.1706 122.509 76.535 122.294 75.907 122.294C75.2789 122.294 74.8945 122.589 74.8945 123.038C74.8945 124.152 78.3715 123.46 78.3715 125.696C78.3715 126.692 77.6731 127.544 76.0602 127.544C74.9586 127.544 74.1609 127.158 73.6321 126.593Z" fill="white"/>
<path d="M196.994 127.527C196.062 127.455 195.373 127.105 194.907 126.593L195.49 125.785C195.83 126.153 196.341 126.485 196.994 126.584V124.852C196.071 124.619 195.095 124.287 195.095 123.11C195.095 122.194 195.839 121.477 196.994 121.378V120.543H197.712V121.388C198.438 121.468 199.047 121.746 199.513 122.195L198.913 122.977C198.572 122.645 198.151 122.438 197.712 122.349V123.893C198.644 124.144 199.647 124.494 199.647 125.697C199.647 126.613 199.056 127.411 197.712 127.528V128.336H196.994V127.528V127.527ZM196.994 123.703V122.302C196.483 122.357 196.17 122.643 196.17 123.038C196.17 123.388 196.52 123.568 196.994 123.703ZM197.71 125.04V126.593C198.328 126.495 198.58 126.135 198.58 125.794C198.58 125.39 198.203 125.193 197.71 125.04Z" fill="white"/>
<path d="M201.412 126.621L202.013 125.902C202.416 126.36 202.953 126.611 203.625 126.611C204.378 126.611 204.853 126.144 204.853 125.56C204.853 124.913 204.387 124.492 203.652 124.492C203.141 124.492 202.72 124.653 202.344 125.013L201.601 124.798V121.449H205.516V122.374H202.648V124.107C202.935 123.82 203.428 123.586 204.001 123.586C205.005 123.586 205.909 124.294 205.909 125.516C205.909 126.738 204.968 127.544 203.633 127.544C202.603 127.544 201.895 127.194 201.411 126.619L201.412 126.621Z" fill="white"/>
<path d="M207.55 124.449C207.55 122.942 208.267 121.361 209.943 121.361C211.619 121.361 212.336 122.94 212.336 124.449C212.336 125.958 211.619 127.545 209.943 127.545C208.267 127.545 207.55 125.956 207.55 124.449ZM211.268 124.449C211.268 123.309 210.919 122.295 209.942 122.295C208.964 122.295 208.615 123.309 208.615 124.449C208.615 125.589 208.964 126.612 209.942 126.612C210.919 126.612 211.268 125.589 211.268 124.449Z" fill="white"/>
<path d="M213.965 124.449C213.965 122.942 214.682 121.361 216.358 121.361C218.033 121.361 218.751 122.94 218.751 124.449C218.751 125.958 218.033 127.545 216.358 127.545C214.682 127.545 213.965 125.956 213.965 124.449ZM217.684 124.449C217.684 123.309 217.335 122.295 216.358 122.295C215.381 122.295 215.031 123.309 215.031 124.449C215.031 125.589 215.381 126.612 216.358 126.612C217.335 126.612 217.684 125.589 217.684 124.449Z" fill="white"/>
<path d="M223.848 127.437V121.451H226.473C227.728 121.451 228.427 122.313 228.427 123.327C228.427 124.341 227.718 125.203 226.473 125.203H224.897V127.437H223.848ZM227.353 123.327C227.353 122.752 226.923 122.375 226.332 122.375H224.898V124.278H226.332C226.923 124.278 227.353 123.9 227.353 123.327Z" fill="white"/>
<path d="M233.607 127.437L232.281 125.203H231.241V127.437H230.192V121.451H232.817C234.001 121.451 234.771 122.222 234.771 123.327C234.771 124.431 234.072 124.969 233.355 125.086L234.816 127.437H233.606H233.607ZM233.697 123.327C233.697 122.752 233.267 122.375 232.675 122.375H231.242V124.278H232.675C233.267 124.278 233.697 123.9 233.697 123.327Z" fill="white"/>
<path d="M236.716 127.437V121.451H237.765V127.437H236.716Z" fill="white"/>
<path d="M239.691 127.437V126.584L242.747 122.374H239.691V121.449H244.109V122.302L241.052 126.513H244.17V127.437H239.689H239.691Z" fill="white"/>
<path d="M246.106 127.437V121.451H250.201V122.375H247.155V123.928H250.138V124.853H247.155V126.514H250.201V127.439H246.106V127.437Z" fill="white"/>
<path d="M251.787 126.593L252.37 125.785C252.782 126.226 253.428 126.611 254.261 126.611C255.094 126.611 255.462 126.189 255.462 125.794C255.462 124.537 251.976 125.318 251.976 123.11C251.976 122.122 252.845 121.36 254.153 121.36C255.085 121.36 255.837 121.656 256.392 122.194L255.792 122.976C255.326 122.509 254.69 122.294 254.062 122.294C253.434 122.294 253.05 122.589 253.05 123.038C253.05 124.152 256.527 123.46 256.527 125.696C256.527 126.692 255.828 127.544 254.215 127.544C253.114 127.544 252.316 127.158 251.787 126.593Z" fill="white"/>
<path d="M85.8909 124.44H187.58" stroke="white" stroke-width="0.711645" stroke-miterlimit="10"/>
<path d="M97.3546 112.309H62.3608L100.734 55.803H104.369L97.3546 112.309Z" fill="#07AC2D"/>
<path d="M64.6018 112.309H36.8171L75.1899 55.803H102.975L64.6018 112.309Z" fill="#49D600"/>
<path d="M39.0579 112.31H11.272L49.6447 55.8032H77.4307L39.0579 112.31Z" fill="#91FF50"/>
<path d="M100.234 104.859L99.6534 105.499L99.0153 109.047L98.4349 109.629H93.6729L92.2924 106.915L93.7885 105.15L93.1503 104.511C85.6599 103.115 82.0598 98.3454 82.0598 93.052C82.0598 92.18 82.1766 91.5987 82.1766 91.5987L82.757 91.0174L87.97 89.6975L90.422 91.5987C90.422 91.5987 90.3052 92.18 90.3052 93.052C90.3052 95.3785 91.5249 97.0066 94.6602 97.6471L95.2406 97.0658L97.0406 86.5959L96.4603 86.0146C89.8404 84.2694 85.7177 80.8961 85.7177 74.9635C85.7177 66.7043 93.4405 63.5638 100.699 63.1561L101.279 62.5748L101.917 59.0265L102.497 58.4452L105.339 57.1857L107.838 59.0265L107.141 63.0403L107.664 63.6216C114.457 65.017 117.361 69.2057 117.361 73.8587C117.361 74.7319 117.244 75.3133 117.244 75.3133L116.664 75.8946H109.581L108.173 73.2132C108.173 73.2132 109.116 74.7319 109.116 73.8587C109.116 72.1727 108.361 71.0667 106.271 70.5433L105.69 71.1246L104.123 80.082L104.645 80.6633C111.439 82.3506 115.91 85.2005 115.91 91.7145C115.91 100.555 108.362 104.336 100.232 104.859H100.234ZM99.2464 70.2513C96.5758 70.6578 93.9631 71.8216 93.9631 74.9622C93.9631 76.881 94.8913 77.987 97.9111 79.0339L98.4915 78.4526L99.8267 70.8326L99.2464 70.2513ZM101.162 97.1815L101.685 97.7629C104.878 97.1815 107.782 95.6113 107.782 91.7132C107.782 89.6195 106.504 88.5726 103.311 87.6415L102.731 88.2228L101.163 97.1803L101.162 97.1815Z" fill="#333333"/>
<path d="M99.4093 112.32H94.6485C94.1887 112.32 93.7692 112.062 93.5607 111.651L91.0835 107.567C90.8599 107.128 90.9215 106.596 91.2406 106.22L92.8698 106.962C86.02 105.331 80.0671 97.8107 80.0671 91.6931C80.0671 90.728 80.1928 90.0712 80.2066 89.9995C80.2543 89.763 80.3699 89.544 80.5407 89.3742L81.121 88.7929C81.2768 88.6368 81.4715 88.5261 81.6851 88.472L87.8364 88.6117C88.2007 88.5198 88.5876 88.6004 88.8828 88.8306L92.1437 92.0995C92.5105 92.3839 92.6851 92.852 92.5934 93.3062C92.5934 93.3062 92.5017 93.7969 92.5017 94.5204C92.5017 95.7346 92.8321 97.0407 95.1145 97.7264L96.6922 88.5488C89.2445 86.4727 83.8255 80.0053 83.8255 74.0387C83.8255 66.5698 91.3096 64.1263 101.123 63.433L101.69 60.2773C101.734 60.0319 101.852 59.8054 102.028 59.6293L102.609 59.048C102.715 58.941 102.841 58.8555 102.978 58.7938L104.832 55.9074C105.233 55.73 105.698 55.7816 106.049 56.0408L109.538 59.5085C109.911 59.7841 110.098 60.2458 110.017 60.7038L109.767 62.1458C116.115 63.6381 119.559 69.7015 119.559 75.3259C119.559 76.2922 119.433 76.949 119.418 77.0207C119.371 77.2573 119.255 77.475 119.084 77.6448L118.504 78.2261C118.275 78.4551 117.964 78.5847 117.64 78.5847H110.556C110.103 78.5847 109.687 78.3331 109.475 77.9304L107.486 73.6172C107.228 73.124 107.337 72.5326 107.722 72.1639C107.577 72.0419 107.976 73.5631 107.753 73.4637L106.421 81.0723C111.971 82.5155 118.106 85.2597 118.106 93.1816C118.106 101.104 112.015 106.699 101.781 107.512L101.765 107.529L101.188 110.732C101.144 110.977 101.026 111.203 100.85 111.38L100.27 111.961C100.041 112.19 99.7296 112.32 99.4055 112.32H99.4093ZM102.661 100.454C102.319 100.454 101.988 100.31 101.754 100.05L101.232 99.4691C100.981 99.1897 100.871 98.8098 100.935 98.4386L102.504 89.4811C102.548 89.2333 102.666 89.0055 102.844 88.8268L103.424 88.2455C103.739 87.9297 104.203 87.8114 104.629 87.936C107.408 88.7463 109.98 89.9429 109.98 93.1829C109.98 95.902 108.747 99.3672 102.88 100.435C102.807 100.448 102.734 100.456 102.661 100.456V100.454ZM104.797 90.5532L103.532 97.7818C107.097 96.8016 107.538 94.7192 107.538 93.1816C107.538 92.2304 107.32 91.4201 104.797 90.5532ZM98.888 81.7266C98.7536 81.7266 98.6192 81.7052 98.4885 81.6586C96.0101 80.7992 93.7177 79.5712 93.7177 76.4306C93.7177 74.1696 94.8143 71.307 100.039 70.5093C100.42 70.4514 100.811 70.5785 101.086 70.8541L101.667 71.4354C101.948 71.7172 102.075 72.1199 102.006 72.5124L100.67 80.1324C100.628 80.3802 100.508 80.608 100.331 80.7854L99.7509 81.3667C99.5186 81.5995 99.2058 81.7253 98.8867 81.7253L98.888 81.7266ZM99.4193 73.1214C96.5214 73.8248 96.1609 75.3208 96.1609 76.4306C96.1609 77.3793 96.3367 78.1444 98.3893 79.005L99.4206 73.1214H99.4193Z" fill="#333333"/>
<path d="M134.016 106.443C126.236 106.443 120.836 102.139 120.836 95.9736C120.836 95.2174 120.953 94.811 120.953 94.811L121.533 94.2297L126.432 92.8142L129.14 94.811C129.14 94.811 129.082 95.1017 129.082 95.3923C129.082 98.3001 130.592 99.464 134.018 99.464C139.418 99.464 141.915 95.1595 141.915 89.8674C141.915 86.9017 140.522 84.9237 136.864 84.9237C134.542 84.9237 132.102 85.505 130.129 88.4128L128.967 88.9941L123.219 88.4128L121.679 85.505L127.689 65.7292L128.27 65.1479L150.534 63.5436L152.715 65.7292L151.728 71.5448L151.148 72.1261H134.715L134.135 72.7074L132.219 80.5601H132.799C132.799 80.5601 134.889 77.943 139.535 77.943C146.038 77.943 150.16 82.6539 150.16 89.8661C150.16 99.4049 144.063 106.442 134.018 106.442L134.016 106.443Z" fill="#333333"/>
<path d="M134.016 107.667C125.536 107.667 117.886 100.82 117.886 93.9353C117.886 93.052 118.023 92.5311 118.05 92.4355C118.107 92.2367 118.214 92.0542 118.36 91.9083L118.94 91.327C119.086 91.181 119.267 91.0741 119.465 91.0162L125.414 90.2889C125.78 90.1845 126.172 90.2537 126.477 90.4802L129.862 93.8271C130.244 94.1089 130.429 94.5871 130.336 95.0526C130.328 95.0954 130.302 95.2602 130.302 95.3923C130.302 97.281 130.876 98.241 134.016 98.241C140.21 98.241 140.692 91.8328 140.692 89.8674C140.692 87.2591 139.546 86.1468 136.862 86.1468C135.021 86.1468 132.902 86.4978 131.136 89.1011C131.019 89.2748 130.858 89.4144 130.673 89.5075L129.511 90.0889C129.303 90.192 129.07 90.2348 128.841 90.2122L123.093 89.6309C122.686 89.5893 122.328 89.3478 122.136 88.9866L119.641 84.5576C119.49 84.272 119.458 83.9373 119.552 83.6278L126.517 65.3732C126.575 65.1819 126.681 65.007 126.822 64.8648L127.403 64.2835C127.61 64.0759 127.885 63.9488 128.179 63.9287L149.162 61.114C149.524 61.0851 149.863 61.2184 150.113 61.4688L153.576 64.8661C153.856 65.1467 153.983 65.5455 153.916 65.9356L152.929 71.7512C152.886 72.0016 152.768 72.2319 152.589 72.4118L152.008 72.9931C151.78 73.2221 151.468 73.3517 151.144 73.3517H135.231L134.088 78.0387C134.371 76.8811 135.188 73.8525 137.575 73.8525C144.773 73.8525 151.378 81.8826 151.378 89.8687C151.378 100.515 144.4 107.668 134.014 107.668L134.016 107.667ZM122.087 95.4049C122.072 95.5433 122.057 95.7346 122.057 95.9737C122.057 101.417 126.974 105.219 134.016 105.219C143.081 105.219 148.937 99.1935 148.937 89.8674C148.937 83.2679 145.333 79.1673 139.532 79.1673C135.589 79.1673 133.817 81.2459 133.744 81.334C133.511 81.6133 133.16 81.7844 132.797 81.7844H132.216C131.841 81.7844 131.488 81.6121 131.255 81.3164C131.024 81.0207 130.941 80.6357 131.029 80.2708L132.945 72.4181C132.998 72.2004 133.109 72.0016 133.268 71.8431L133.848 71.2617C134.077 71.0327 134.388 70.9031 134.712 70.9031H150.596L151.403 66.147L150.062 64.8044L128.808 66.3357L128.766 66.3785L122.991 85.378L123.989 87.2616L128.734 87.741L129.302 87.4566C131.723 84.0958 134.763 83.6995 136.862 83.6995C140.906 83.6995 143.135 85.8901 143.135 89.8674C143.135 96.4405 139.555 100.687 134.016 100.687C132.494 100.687 127.859 100.687 127.859 95.3923V95.3861L126.191 94.1555L122.172 95.3169L122.084 95.4037L122.087 95.4049Z" fill="#333333"/>
<path d="M172.223 64.5654C179.598 64.5654 185.52 68.637 185.52 78.5243C185.52 89.8083 181.862 106.442 167.229 106.442C159.854 106.442 153.933 102.371 153.933 92.4833C153.933 81.1994 157.591 64.5654 172.223 64.5654ZM167.23 99.4628C175.418 99.4628 177.45 84.8055 177.45 78.5243C177.45 73.4058 175.65 71.5448 172.225 71.5448C164.037 71.5448 162.005 86.2021 162.005 92.4833C162.005 97.6018 163.805 99.4628 167.23 99.4628Z" fill="#333333"/>
<path d="M167.229 107.667C158.138 107.667 150.938 99.6276 150.938 90.1203C150.938 76.0318 156.386 60.4912 170.772 60.4912C179.863 60.4912 186.742 69.0183 186.742 78.5244C186.742 92.6117 181.615 107.665 167.23 107.665L167.229 107.667ZM172.223 65.7897C155.977 65.7897 155.153 88.0266 155.153 92.4846C155.153 103.565 162.719 105.219 167.229 105.219C183.474 105.219 184.298 82.9823 184.298 78.5244C184.298 67.443 176.733 65.7884 172.223 65.7884V65.7897ZM167.229 100.687C162.89 100.687 160.782 98.0045 160.782 92.4846C160.782 86.3204 162.837 70.3219 172.223 70.3219C176.562 70.3219 178.671 73.0045 178.671 78.5256C178.671 84.6898 176.616 100.688 167.23 100.688L167.229 100.687ZM172.223 72.7692C169.226 72.7692 166.863 75.2215 165.199 80.0582C163.743 84.2884 163.225 89.3969 163.225 92.4846C163.225 97.7956 165.204 98.2411 167.23 98.2411C170.227 98.2411 172.591 95.7887 174.256 90.952C175.711 86.7218 176.229 81.6146 176.229 78.5256C176.229 73.2133 174.251 72.7692 172.224 72.7692H172.223Z" fill="#333333"/>
<path d="M194.243 106.139L188.553 111.956L187.392 112.537H183.327L182.389 110.384L188.031 105.558L188.146 104.976L187.566 104.395H186.405L185.011 101.696L187.16 96.253L187.742 95.6717L194.094 94.309L196.569 96.253L195.175 104.396L194.247 106.142L194.243 106.139Z" fill="#333333"/>
<path d="M187.391 113.76H183.328C182.842 113.76 182.402 113.472 182.207 113.025L180.228 109.102C180.162 108.971 180.211 108.94 180.239 108.796C180.299 108.487 180.469 108.018 180.771 107.76L186.119 105.583C185.778 105.501 185.484 105.275 185.32 104.956L182.784 100.482C182.644 100.213 182.7 100.028 182.774 99.7383C182.799 99.6415 182.854 99.5546 182.918 99.4792L186.022 95.8013C186.084 95.6453 186.177 95.5044 186.295 95.3861L186.876 94.8048C187.042 94.6387 187.253 94.5229 187.483 94.4739L192.776 91.5874C193.131 91.512 193.501 91.5975 193.786 91.8215L197.319 95.2892C197.672 95.5673 197.845 96.0152 197.768 96.4594L196.374 104.603C196.351 104.731 196.31 104.856 196.248 104.971L195.319 106.717C195.265 106.818 195.196 106.913 195.114 106.996L189.422 112.814C189.328 112.911 189.218 112.991 189.097 113.052L187.936 113.633C187.767 113.719 187.58 113.763 187.39 113.763L187.391 113.76ZM184.127 111.313H187.104L187.825 110.952L193.249 105.407L194.002 103.991L195.24 96.7626L193.789 95.6226L188.348 96.789L188.202 96.9362L186.35 101.626L187.148 103.17H187.566C187.89 103.17 188.202 103.299 188.43 103.528L189.01 104.109C189.298 104.398 189.424 104.812 189.345 105.213L189.229 105.794C189.175 106.064 189.033 106.308 188.825 106.486L183.87 110.724L184.127 111.312V111.313Z" fill="#333333"/>
<path d="M217.374 64.5653C224.749 64.5653 230.671 68.637 230.671 78.5243C230.671 89.8082 227.013 106.442 212.38 106.442C205.005 106.442 199.083 102.371 199.083 92.4832C199.083 81.1993 202.741 64.5653 217.374 64.5653ZM212.381 99.4627C220.569 99.4627 222.601 84.8054 222.601 78.5243C222.601 73.4057 220.801 71.5448 217.375 71.5448C209.188 71.5448 207.155 86.2021 207.155 92.4832C207.155 97.6018 208.956 99.4627 212.381 99.4627Z" fill="#333333"/>
<path d="M212.381 107.666C203.29 107.666 196.079 100.172 196.079 90.6651C196.079 76.5765 200.767 60.4609 215.152 60.4609C224.243 60.4609 231.893 69.0183 231.893 78.5256C231.893 92.6129 226.766 107.666 212.381 107.666ZM217.374 65.7896C201.128 65.7896 200.306 88.0266 200.306 92.4845C200.306 103.565 207.871 105.219 212.381 105.219C228.627 105.219 229.451 82.9823 229.451 78.5243C229.451 67.4429 221.885 65.7883 217.375 65.7883L217.374 65.7896ZM212.381 100.687C208.042 100.687 205.933 98.0044 205.933 92.4845C205.933 86.3204 207.988 70.3218 217.374 70.3218C221.713 70.3218 223.822 73.0044 223.822 78.5256C223.822 84.6897 221.767 100.688 212.381 100.688V100.687ZM217.374 72.7691C214.377 72.7691 212.014 75.2214 210.348 80.0581C208.893 84.2896 208.375 89.3968 208.375 92.4845C208.375 97.7956 210.353 98.241 212.38 98.241C215.377 98.241 217.741 95.7887 219.405 90.952C220.861 86.7218 221.379 81.6145 221.379 78.5256C221.379 73.2132 219.4 72.7691 217.374 72.7691Z" fill="#333333"/>
<path d="M251.806 64.5654C259.181 64.5654 265.103 68.637 265.103 78.5243C265.103 89.8083 261.445 106.442 246.812 106.442C239.437 106.442 233.516 102.371 233.516 92.4833C233.516 81.1994 237.174 64.5654 251.806 64.5654ZM246.813 99.4628C255.001 99.4628 257.033 84.8055 257.033 78.5243C257.033 73.4058 255.233 71.5448 251.808 71.5448C243.62 71.5448 241.588 86.2021 241.588 92.4833C241.588 97.6018 243.388 99.4628 246.813 99.4628Z" fill="#333333"/>
<path d="M246.813 107.667C237.723 107.667 230.672 100.172 230.672 90.6652C230.672 76.5766 235.645 60.4749 250.03 60.4749C259.121 60.4749 266.325 69.0183 266.325 78.5256C266.325 92.6129 261.199 107.667 246.813 107.667ZM251.807 65.7897C235.561 65.7897 234.737 88.0266 234.737 92.4846C234.737 103.565 242.303 105.219 246.812 105.219C263.058 105.219 263.882 82.9823 263.882 78.5244C263.882 67.443 256.316 65.7884 251.807 65.7884V65.7897ZM246.813 100.687C242.475 100.687 240.366 98.0045 240.366 92.4846C240.366 86.3204 242.421 70.3219 251.807 70.3219C256.145 70.3219 258.254 73.0045 258.254 78.5256C258.254 84.6898 256.199 100.688 246.813 100.688V100.687ZM251.807 72.7692C248.809 72.7692 246.445 75.2215 244.781 80.0582C243.325 84.2896 242.808 89.3969 242.808 92.4846C242.808 97.7956 244.786 98.2411 246.812 98.2411C249.809 98.2411 252.173 95.7887 253.838 90.952C255.294 86.7218 255.811 81.6146 255.811 78.5256C255.811 73.2133 253.833 72.7692 251.807 72.7692Z" fill="#333333"/>
<path d="M286.24 64.5653C293.615 64.5653 299.536 68.637 299.536 78.5243C299.536 89.8082 295.878 106.442 281.246 106.442C273.871 106.442 267.949 102.371 267.949 92.4832C267.949 81.1993 271.607 64.5653 286.24 64.5653ZM281.246 99.4627C289.433 99.4627 291.466 84.8054 291.466 78.5243C291.466 73.4057 289.665 71.5448 286.24 71.5448C278.052 71.5448 276.02 86.2021 276.02 92.4832C276.02 97.6018 277.82 99.4627 281.246 99.4627Z" fill="#333333"/>
<path d="M281.245 107.666C272.155 107.666 264.902 99.7521 264.902 90.2448C264.902 76.1563 270.432 60.4924 284.819 60.4924C293.91 60.4924 300.757 69.0182 300.757 78.5243C300.757 92.6116 295.631 107.665 281.245 107.665V107.666ZM286.24 65.7896C269.994 65.7896 269.17 88.0265 269.17 92.4845C269.17 103.565 276.736 105.219 281.245 105.219C297.491 105.219 298.315 82.9822 298.315 78.5243C298.315 67.4429 290.749 65.7883 286.24 65.7883V65.7896ZM281.245 100.687C276.907 100.687 274.798 98.0044 274.798 92.4845C274.798 86.3204 276.853 70.3218 286.239 70.3218C290.577 70.3218 292.686 73.0044 292.686 78.5255C292.686 84.6897 290.631 100.688 281.245 100.688V100.687ZM286.24 72.7691C283.243 72.7691 280.88 75.2214 279.214 80.0581C277.758 84.2895 277.241 89.3968 277.241 92.4845C277.241 97.7955 279.219 98.241 281.245 98.241C284.243 98.241 286.607 95.7886 288.271 90.9519C289.727 86.7217 290.244 81.6145 290.244 78.5255C290.244 73.2132 288.266 72.7691 286.24 72.7691Z" fill="#333333"/>
<path d="M192.085 102.518L186.395 108.335L185.234 108.916H181.169L181.344 107.753L185.874 101.936L185.989 101.355L185.409 100.774H184.248L183.667 100.193L185.002 92.6317L185.584 92.0504H193.829L194.41 92.6317L193.017 100.775L192.089 102.52L192.085 102.518Z" fill="white"/>
<path d="M184.745 109.405H180.68C180.538 109.405 180.402 109.344 180.309 109.236C180.216 109.127 180.175 108.985 180.196 108.844L180.371 107.68C180.383 107.597 180.417 107.518 180.469 107.451L184.927 101.728L184.968 101.516L184.716 101.263H183.757C183.628 101.263 183.504 101.212 183.412 101.12L182.83 100.539C182.717 100.425 182.667 100.264 182.695 100.107L184.03 92.545C184.048 92.4456 184.095 92.355 184.166 92.2845L184.747 91.7032C184.839 91.6113 184.963 91.5598 185.093 91.5598H193.338C193.467 91.5598 193.592 91.6113 193.683 91.7032L194.265 92.2845C194.377 92.3965 194.428 92.5563 194.401 92.7136L193.006 100.857C192.998 100.909 192.98 100.959 192.956 101.004L192.027 102.748C192.005 102.79 191.978 102.827 191.945 102.86L186.255 108.677C186.217 108.716 186.173 108.747 186.124 108.773L184.962 109.354C184.894 109.388 184.819 109.405 184.743 109.405H184.745ZM181.248 108.427H184.629L185.614 107.933L191.199 102.225L192.058 100.612L193.396 92.7966L193.137 92.5374H185.296L184.967 92.8671L183.702 100.025L183.96 100.283H184.918C185.047 100.283 185.172 100.335 185.263 100.427L185.844 101.008C185.959 101.124 186.01 101.289 185.977 101.45L185.861 102.031C185.846 102.105 185.815 102.176 185.767 102.236L181.317 107.951L181.245 108.425L181.248 108.427Z" fill="#333333"/>
<path d="M98.5628 102.707L97.9825 103.346L97.3443 106.894L96.764 107.477H92.002L91.4216 106.894L92.1188 102.997L91.4806 102.358C83.9902 100.963 80.3901 96.1926 80.3901 90.8992C80.3901 90.0272 80.507 89.4459 80.507 89.4459L81.0873 88.8646H88.172L88.7523 89.4459C88.7523 89.4459 88.6355 90.0272 88.6355 90.8992C88.6355 93.2257 89.8552 94.8538 92.9905 95.4943L93.5709 94.913L95.3709 84.4431L94.7906 83.8618C88.1707 82.1166 84.048 78.7433 84.048 72.8107C84.048 64.5515 91.7708 61.411 99.0288 61.0033L99.6092 60.422L100.247 56.8737L100.828 56.2924H105.588L106.17 56.8737L105.473 60.8875L105.995 61.4688C112.789 62.8642 115.693 67.0529 115.693 71.7059C115.693 72.5791 115.576 73.1604 115.576 73.1604L114.996 73.7417H107.912L107.332 73.1604C107.332 73.1604 107.449 72.5791 107.449 71.7059C107.449 70.0199 106.694 68.9139 104.604 68.3904L104.023 68.9717L102.456 77.9292L102.978 78.5105C109.771 80.1978 114.243 83.0477 114.243 89.5616C114.243 98.4021 106.695 102.183 98.5653 102.707H98.5628ZM97.5755 68.0985C94.9049 68.5049 92.2921 69.6688 92.2921 72.8094C92.2921 74.7282 93.2204 75.8342 96.2402 76.8811L96.8205 76.2998L98.1558 68.6798L97.5755 68.0985ZM99.4911 95.0287L100.014 95.61C103.207 95.0287 106.111 93.4584 106.111 89.5604C106.111 87.4667 104.833 86.4198 101.64 85.4887L101.06 86.07L99.4924 95.0275L99.4911 95.0287Z" fill="white"/>
<path d="M96.7626 107.965H92.0019C91.8725 107.965 91.7481 107.913 91.6564 107.821L91.0761 107.239C90.963 107.125 90.9128 106.964 90.9404 106.806L91.5924 103.161L91.2406 102.808C84.2414 101.451 79.9001 96.8985 79.9001 90.8979C79.9001 89.9882 80.0207 89.3742 80.0258 89.3477C80.0446 89.2534 80.0911 89.1666 80.1589 89.0974L80.7393 88.516C80.8309 88.4242 80.9553 88.3726 81.0847 88.3726H88.1694C88.2987 88.3726 88.4231 88.4242 88.5148 88.516L89.0951 89.0974C89.2107 89.2131 89.2597 89.3779 89.2283 89.539C89.2283 89.544 89.1215 90.0914 89.1215 90.8979C89.1215 93.0822 90.3023 94.3769 92.8309 94.9583L93.1135 94.6751L94.8445 84.6092L94.5355 84.2997C87.2499 82.3456 83.5568 78.4803 83.5568 72.8094C83.5568 68.8459 85.235 65.7318 88.5462 63.5525C91.8398 61.3833 95.911 60.7051 98.8127 60.5251L99.1544 60.1829L99.7661 56.7856C99.7837 56.6875 99.8314 56.5969 99.9018 56.5264L100.482 55.9451C100.574 55.8533 100.698 55.8017 100.828 55.8017H105.588C105.718 55.8017 105.842 55.8533 105.934 55.9451L106.515 56.5264C106.628 56.6384 106.679 56.7995 106.651 56.9555L105.995 60.734L106.252 61.0196C115.209 62.9297 116.18 69.1189 116.18 71.7021C116.18 72.6118 116.06 73.2259 116.055 73.2523C116.036 73.3467 115.989 73.4335 115.921 73.5027L115.341 74.084C115.249 74.1758 115.125 74.2274 114.996 74.2274H107.912C107.783 74.2274 107.658 74.1758 107.567 74.084L106.986 73.5027C106.871 73.3869 106.822 73.2221 106.853 73.061C106.853 73.056 106.96 72.5087 106.96 71.7021C106.96 70.2061 106.314 69.3895 104.749 68.934L104.478 69.2058L102.978 77.7757L103.242 78.0688C113.423 80.6407 114.732 85.5567 114.732 89.5591C114.732 97.3942 108.779 102.475 98.7938 103.18L98.4409 103.57L97.8266 106.98C97.809 107.078 97.7613 107.168 97.6909 107.239L97.1106 107.821C97.0189 107.913 96.8945 107.965 96.7652 107.965H96.7626ZM92.2041 106.986H96.5604L96.8895 106.656L97.5013 103.259C97.5176 103.168 97.559 103.084 97.6206 103.016L98.2009 102.376C98.2864 102.282 98.4044 102.225 98.5313 102.217C102.103 101.987 113.752 100.395 113.752 89.5604C113.752 84.043 110.494 80.881 102.859 78.9848C102.763 78.9609 102.678 78.9093 102.613 78.8376L102.09 78.2563C101.989 78.1443 101.946 77.9921 101.972 77.8449L103.54 68.8874C103.557 68.788 103.605 68.6974 103.675 68.6257L104.256 68.0444C104.377 67.9224 104.555 67.8733 104.719 67.9161C106.914 68.4647 107.935 69.6688 107.935 71.7059C107.935 72.2721 107.888 72.7238 107.852 72.9906L108.113 73.2523H114.792L115.119 72.9251C115.15 72.7125 115.202 72.2746 115.202 71.7059C115.202 66.7195 111.81 63.1637 105.895 61.9482C105.793 61.9268 105.7 61.874 105.63 61.796L105.107 61.2147C105.007 61.1027 104.963 60.9517 104.989 60.8032L105.642 57.0398L105.384 56.7819H101.027L100.698 57.1115L100.086 60.5088C100.069 60.6069 100.021 60.6975 99.9507 60.768L99.3704 61.3493C99.285 61.4349 99.1719 61.4852 99.0526 61.4915C95.6472 61.6827 84.5328 63.0643 84.5328 72.8106C84.5328 78.0877 87.9269 81.5479 94.9111 83.3887C94.994 83.4101 95.0706 83.4541 95.1322 83.5158L95.7125 84.0971C95.8243 84.2091 95.8758 84.3701 95.8482 84.5262L94.0481 94.996C94.0305 95.0954 93.9841 95.1873 93.9125 95.259L93.3321 95.8403C93.2165 95.956 93.0495 96.0064 92.89 95.9737C89.7408 95.332 88.1442 93.6245 88.1442 90.8992C88.1442 90.3329 88.1907 89.8812 88.2271 89.6145L87.9659 89.3528H81.2869L80.9603 89.6799C80.9289 89.8926 80.8774 90.3304 80.8774 90.8992C80.8774 96.5248 84.8745 100.629 91.5685 101.876C91.6652 101.894 91.7557 101.942 91.8247 102.011L92.4629 102.651C92.5759 102.764 92.6262 102.925 92.5985 103.084L91.9466 106.729L92.2041 106.987V106.986ZM100.015 96.0995C99.8779 96.0995 99.7447 96.0416 99.6518 95.9372L99.1292 95.3559C99.0287 95.2439 98.9848 95.0916 99.0112 94.9444L100.58 85.987C100.598 85.8876 100.645 85.797 100.716 85.7253L101.296 85.1439C101.422 85.0169 101.608 84.9691 101.778 85.0206C104.757 85.8876 106.602 86.9508 106.602 89.5616C106.602 93.0596 104.355 95.3181 100.104 96.0919C100.075 96.0982 100.046 96.0995 100.016 96.0995H100.015ZM100.014 94.8777L100.193 95.0778C103.846 94.3442 105.622 92.5374 105.622 89.5604C105.622 87.8202 104.645 86.913 101.78 86.0411L101.515 86.3066L100.014 94.8765V94.8777ZM96.2401 77.3718C96.1861 77.3718 96.1333 77.363 96.0806 77.3454C92.9628 76.2645 91.8034 75.0352 91.8034 72.8106C91.8034 70.8365 92.792 68.3325 97.5025 67.6153C97.6558 67.5914 97.8128 67.643 97.9221 67.7525L98.5024 68.3338C98.6155 68.4471 98.6657 68.6068 98.6381 68.7641L97.3028 76.3841C97.2852 76.4835 97.2375 76.5741 97.1671 76.6458L96.5868 77.2271C96.4938 77.3202 96.3682 77.3705 96.2414 77.3705L96.2401 77.3718ZM97.4058 68.6219C94.2931 69.1517 92.7794 70.5232 92.7794 72.8106C92.7794 74.2878 93.3196 75.2982 96.112 76.3174L96.3657 76.0632L97.6306 68.8472L97.4058 68.6219Z" fill="#333333"/>
<path d="M131.369 102.822C123.589 102.822 118.189 98.5179 118.189 92.3525C118.189 91.5963 118.306 91.1898 118.306 91.1898L118.886 90.6085H125.912L126.492 91.1898C126.492 91.1898 126.434 91.4805 126.434 91.7711C126.434 94.6789 127.944 95.8428 131.369 95.8428C136.77 95.8428 139.267 91.5384 139.267 86.2462C139.267 83.2805 137.874 81.3026 134.216 81.3026C131.893 81.3026 129.454 81.8839 127.48 84.7917L126.318 85.373L120.57 84.7917L119.99 84.2104L125.041 62.108L125.621 61.5267H149.487L150.067 62.108L149.08 67.9236L148.5 68.505H132.067L131.486 69.0863L129.571 76.939H130.151C130.151 76.939 132.241 74.3218 136.886 74.3218C143.39 74.3218 147.512 79.0327 147.512 86.2449C147.512 95.7837 141.415 102.821 131.369 102.821V102.822Z" fill="white"/>
<path d="M131.37 103.312C123.322 103.312 117.7 98.8048 117.7 92.3525C117.7 91.551 117.822 91.1031 117.836 91.054C117.859 90.9747 117.901 90.9018 117.96 90.8426L118.541 90.2613C118.632 90.1695 118.757 90.1179 118.886 90.1179H125.912C126.041 90.1179 126.166 90.1695 126.257 90.2613L126.838 90.8426C126.953 90.9584 127.003 91.1245 126.971 91.2843C126.971 91.2868 126.922 91.5347 126.922 91.7699C126.922 94.3481 128.169 95.3522 131.369 95.3522C136.008 95.3522 138.777 91.9474 138.777 86.245C138.777 83.2479 137.285 81.7908 134.215 81.7908C132.302 81.7908 129.854 82.1632 127.883 85.066C127.835 85.1352 127.771 85.1918 127.697 85.2283L126.535 85.8096C126.452 85.8512 126.358 85.8675 126.267 85.8587L120.519 85.2774C120.407 85.2661 120.303 85.2157 120.223 85.1365L119.642 84.5552C119.523 84.4356 119.474 84.2645 119.512 84.0997L124.563 61.9974C124.583 61.908 124.628 61.8262 124.693 61.7608L125.274 61.1795C125.365 61.0877 125.49 61.0361 125.619 61.0361H149.485C149.614 61.0361 149.738 61.0877 149.83 61.1795L150.41 61.7608C150.522 61.8728 150.574 62.0326 150.547 62.1886L149.56 68.0042C149.542 68.1036 149.495 68.1967 149.423 68.2685L148.843 68.8498C148.751 68.9416 148.627 68.9932 148.497 68.9932H132.267L131.926 69.3342L130.271 76.1174C131.174 75.3071 133.308 73.8312 136.883 73.8312C143.635 73.8312 147.997 78.7043 147.997 86.2437C147.997 96.4506 141.313 103.309 131.366 103.309L131.37 103.312ZM118.751 91.4352C118.722 91.5888 118.676 91.9021 118.676 92.3525C118.676 98.2285 123.896 102.333 131.369 102.333C140.732 102.333 147.023 95.868 147.023 86.2463C147.023 79.3007 143.043 74.8126 136.886 74.8126C132.556 74.8126 130.551 77.2234 130.531 77.2485C130.438 77.363 130.297 77.431 130.15 77.431H129.57C129.42 77.431 129.278 77.3618 129.185 77.2435C129.092 77.1252 129.06 76.9705 129.095 76.8258L131.011 68.9731C131.032 68.8863 131.076 68.8057 131.14 68.7428L131.72 68.1615C131.812 68.0697 131.936 68.0181 132.066 68.0181H148.296L148.624 67.6897L149.542 62.2767L149.284 62.0175H125.823L125.485 62.356L120.526 84.0569L120.792 84.3237L126.226 84.8735L127.148 84.4117C129.364 81.2259 132.085 80.8144 134.215 80.8144C137.839 80.8144 139.755 82.693 139.755 86.2475C139.755 92.4683 136.541 96.3336 131.37 96.3336C127.619 96.3336 125.946 94.9269 125.946 91.7725C125.946 91.624 125.958 91.4793 125.972 91.361L125.71 91.098H119.088L118.752 91.4365L118.751 91.4352Z" fill="#333333"/>
<path d="M169.575 60.9454C176.95 60.9454 182.871 65.017 182.871 74.9043C182.871 86.1883 179.214 102.822 164.581 102.822C157.206 102.822 151.284 98.7506 151.284 88.8633C151.284 77.5794 154.942 60.9454 169.575 60.9454ZM164.582 95.8428C172.77 95.8428 174.802 81.1855 174.802 74.9043C174.802 69.7858 173.002 67.9249 169.576 67.9249C161.389 67.9249 159.356 82.5821 159.356 88.8633C159.356 93.9818 161.156 95.8428 164.582 95.8428Z" fill="white"/>
<path d="M164.582 103.312C155.822 103.312 150.796 98.0447 150.796 88.8633C150.796 75.1296 155.729 60.4559 169.575 60.4559C178.336 60.4559 183.361 65.7217 183.361 74.9043C183.361 88.6381 178.429 103.312 164.582 103.312ZM169.575 61.4348C152.631 61.4348 151.773 84.2833 151.773 88.8633C151.773 97.4231 156.441 102.333 164.582 102.333C181.526 102.333 182.384 79.4844 182.384 74.9043C182.384 66.3445 177.716 61.4348 169.575 61.4348ZM164.582 96.3322C160.683 96.3322 158.868 93.9592 158.868 88.8633C158.868 82.903 160.792 67.4354 169.577 67.4354C173.476 67.4354 175.291 69.8085 175.291 74.9043C175.291 80.8647 173.366 96.3322 164.582 96.3322ZM169.575 68.4131C161.633 68.4131 159.844 83.5573 159.844 88.8633C159.844 93.4735 161.216 95.3533 164.581 95.3533C172.525 95.3533 174.312 80.2091 174.312 74.9043C174.312 70.2941 172.939 68.4143 169.574 68.4143L169.575 68.4131Z" fill="#333333"/>
<path d="M214.727 60.9454C222.102 60.9454 228.024 65.017 228.024 74.9043C228.024 86.1883 224.366 102.822 209.733 102.822C202.358 102.822 196.437 98.7506 196.437 88.8633C196.437 77.5794 200.094 60.9454 214.727 60.9454ZM209.733 95.8428C217.92 95.8428 219.953 81.1855 219.953 74.9043C219.953 69.7858 218.153 67.9249 214.727 67.9249C206.54 67.9249 204.507 82.5821 204.507 88.8633C204.507 93.9818 206.307 95.8428 209.733 95.8428Z" fill="white"/>
<path d="M209.733 103.312C200.973 103.312 195.948 98.0447 195.948 88.8633C195.948 75.1296 200.881 60.4559 214.728 60.4559C223.488 60.4559 228.514 65.7217 228.514 74.9043C228.514 88.6381 223.581 103.312 209.734 103.312H209.733ZM214.728 61.4348C197.785 61.4348 196.926 84.2833 196.926 88.8633C196.926 97.4231 201.593 102.333 209.733 102.333C226.677 102.333 227.535 79.4844 227.535 74.9043C227.535 66.3445 222.867 61.4348 214.726 61.4348H214.728ZM209.733 96.3322C205.834 96.3322 204.019 93.9592 204.019 88.8633C204.019 82.903 205.943 67.4354 214.728 67.4354C218.627 67.4354 220.442 69.8085 220.442 74.9043C220.442 80.8647 218.517 96.3322 209.733 96.3322ZM214.728 68.4131C206.784 68.4131 204.996 83.5573 204.996 88.8633C204.996 93.4735 206.369 95.3533 209.734 95.3533C217.678 95.3533 219.466 80.2091 219.466 74.9043C219.466 70.2941 218.093 68.4143 214.728 68.4143V68.4131Z" fill="#333333"/>
<path d="M249.16 60.9454C256.535 60.9454 262.456 65.017 262.456 74.9043C262.456 86.1883 258.798 102.822 244.165 102.822C236.791 102.822 230.869 98.7506 230.869 88.8633C230.869 77.5794 234.527 60.9454 249.16 60.9454ZM244.165 95.8428C252.353 95.8428 254.385 81.1855 254.385 74.9043C254.385 69.7858 252.585 67.9249 249.16 67.9249C240.972 67.9249 238.94 82.5821 238.94 88.8633C238.94 93.9818 240.74 95.8428 244.165 95.8428Z" fill="white"/>
<path d="M244.165 103.312C235.405 103.312 230.379 98.0447 230.379 88.8633C230.379 75.1296 235.312 60.4559 249.159 60.4559C257.919 60.4559 262.945 65.7217 262.945 74.9043C262.945 88.6381 258.012 103.312 244.165 103.312ZM249.16 61.4348C232.216 61.4348 231.358 84.2833 231.358 88.8633C231.358 97.4231 236.026 102.333 244.167 102.333C261.111 102.333 261.969 79.4844 261.969 74.9043C261.969 66.3445 257.301 61.4348 249.16 61.4348ZM244.165 96.3322C240.266 96.3322 238.451 93.9592 238.451 88.8633C238.451 82.903 240.376 67.4354 249.16 67.4354C253.059 67.4354 254.874 69.8085 254.874 74.9043C254.874 80.8647 252.95 96.3322 244.165 96.3322ZM249.16 68.4131C241.216 68.4131 239.428 83.5573 239.428 88.8633C239.428 93.4735 240.801 95.3533 244.167 95.3533C252.11 95.3533 253.898 80.2091 253.898 74.9043C253.898 70.2941 252.525 68.4143 249.16 68.4143V68.4131Z" fill="#333333"/>
<path d="M283.592 60.9454C290.967 60.9454 296.889 65.017 296.889 74.9043C296.889 86.1883 293.231 102.822 278.598 102.822C271.223 102.822 265.302 98.7506 265.302 88.8633C265.302 77.5794 268.959 60.9454 283.592 60.9454ZM278.599 95.8428C286.787 95.8428 288.819 81.1855 288.819 74.9043C288.819 69.7858 287.019 67.9249 283.593 67.9249C275.406 67.9249 273.374 82.5821 273.374 88.8633C273.374 93.9818 275.174 95.8428 278.599 95.8428Z" fill="white"/>
<path d="M278.599 103.312C269.838 103.312 264.812 98.0447 264.812 88.8633C264.812 75.1296 269.745 60.4559 283.592 60.4559C292.352 60.4559 297.378 65.7217 297.378 74.9043C297.378 88.6381 292.445 103.312 278.599 103.312ZM283.592 61.4348C266.648 61.4348 265.79 84.2833 265.79 88.8633C265.79 97.4231 270.458 102.333 278.599 102.333C295.543 102.333 296.401 79.4844 296.401 74.9043C296.401 66.3445 291.733 61.4348 283.592 61.4348ZM278.599 96.3322C274.7 96.3322 272.884 93.9592 272.884 88.8633C272.884 82.903 274.809 67.4354 283.593 67.4354C287.492 67.4354 289.307 69.8085 289.307 74.9043C289.307 80.8647 287.383 96.3322 278.599 96.3322ZM283.592 68.4131C275.648 68.4131 273.861 83.5573 273.861 88.8633C273.861 93.4735 275.233 95.3533 278.599 95.3533C286.543 95.3533 288.33 80.2091 288.33 74.9043C288.33 70.2941 286.957 68.4143 283.592 68.4143V68.4131Z" fill="#333333"/>
</g>
<defs>
<clipPath id="clip0_164_4780">
<rect width="344" height="141" fill="white"/>
</clipPath>
</defs>
</svg>
