<svg width="44" height="28" viewBox="0 0 44 28" fill="none" xmlns="http://www.w3.org/2000/svg">
<g clip-path="url(#clip0_96_21525)">
<path d="M10.4653 10.2021H16.48C21.9081 10.2021 25.3582 13.6545 25.3582 19.0355C25.3582 25.0117 21.5286 27.9045 15.4219 27.9045H10.4653V10.2021ZM16.112 14.2617C15.8935 14.2617 15.6174 14.2974 15.2379 14.2974V23.845C18.2855 23.845 20.6546 22.5831 20.6546 18.9402C20.6546 15.8093 18.7225 14.2617 16.1005 14.2617" fill="white"/>
<path d="M44.0001 15.3572V10.6787C42.7811 10.1549 41.7001 9.86914 40.1706 9.86914C35.1564 9.86914 31.1313 13.7977 31.1313 19.0001C31.1313 24.2025 35.0874 28.0001 40.0786 28.0001C41.8496 28.0001 43.0686 27.6072 44.0001 26.8691V22.1906C42.5971 23.0953 41.6311 23.4882 40.3201 23.4882C37.8015 23.4882 35.835 21.5834 35.835 18.7739C35.835 15.9644 37.8245 14.0358 40.3201 14.0358C41.6886 14.0358 42.6891 14.5239 44.0001 15.3572Z" fill="white"/>
<path d="M0 6.64286V7.47619H3.33508V6.64286C2.36905 6.60714 2.21955 6.4881 2.21955 5.80952V1.58333L4.2091 7.4881H5.06012L7.19916 1.58333V5.71429C7.19916 6.30159 6.80432 6.61508 6.01464 6.65476V7.4881H9.87873V6.65476C8.7517 6.65476 8.7287 6.52381 8.7287 5.90476V1.77381C8.7287 1.09524 8.8207 0.869048 9.87873 0.869048V0H6.57815L4.89911 4.7381L3.33508 0H0V0.869048C0.931521 0.869048 1.09252 0.869048 1.09252 1.70238V5.66667C1.09252 6.44048 1.09252 6.63095 0 6.63095" fill="white"/>
<path d="M16.1694 6.64267V7.476H19.2515V6.64267C18.504 6.60696 18.504 6.51172 18.504 5.45219V4.54743C18.504 3.67839 18.8835 2.9641 19.6655 2.9641C20.2865 2.9641 20.4705 3.38077 20.4705 3.9641V5.86886C20.4705 6.51172 20.436 6.64267 19.6885 6.64267V7.476H22.4601V6.64267C21.8046 6.64267 21.7471 6.58315 21.7471 5.92839V4.60696C21.7471 3.70219 22.1496 2.92839 22.9661 2.92839C23.5871 2.92839 23.7136 3.32124 23.7136 4.09505V6.03553C23.7136 6.58315 23.7136 6.65458 22.9661 6.65458V7.48791H26.0252V6.65458C25.0936 6.65458 25.0246 6.69029 25.0246 6.14267V3.98791C25.0246 2.74981 24.7371 2.04743 23.5296 2.04743C22.8166 2.04743 22.3451 2.33315 21.7586 2.976C21.4481 2.39267 21.011 2.01172 20.2635 2.01172C19.516 2.01172 18.9525 2.42839 18.5155 3.04743V2.17839H16.1809V2.95219C17.1125 2.95219 17.2045 2.98791 17.2045 3.76172V5.53553C17.2045 6.2895 16.8633 6.66648 16.1809 6.66648" fill="white"/>
<path d="M0.149414 10.2021V27.9045H4.85302L4.88752 21.1307H9.46463V17.0355H4.92202L4.88752 14.2974H9.80963V10.2021H0.149414Z" fill="white"/>
<path d="M26.3931 0H28.5781V2.7381C29.1761 2.22619 29.5441 2.03571 30.1307 2.03571C31.3842 2.03571 32.2237 3.19048 32.2237 4.80952C32.2237 6.54762 31.3842 7.67857 29.9466 7.67857C29.2681 7.67857 28.8311 7.45238 28.3596 6.94048L27.9226 7.55952H27.2671V1.75C27.2671 0.880952 27.2096 0.785714 26.3931 0.785714V0ZM30.7632 4.80952C30.7632 3.58333 30.3262 2.97619 29.7051 2.97619C28.9001 2.97619 28.5551 3.65476 28.5551 4.91667C28.5551 6.0119 28.9576 6.75 29.6821 6.75C30.2687 6.75 30.7747 6.16667 30.7747 4.80952" fill="white"/>
<path d="M38.8592 6.64297V7.47631H42.2172V6.64297C41.2742 6.64297 41.1822 6.67869 41.1822 5.89297V4.73821C41.1822 3.67869 41.5272 2.7025 42.4587 2.7025C42.5162 2.7025 42.5852 2.7025 42.7692 2.76202C42.4587 2.91678 42.2402 3.14297 42.2402 3.50012C42.2402 3.91678 42.5507 4.2144 42.9648 4.2144C43.4593 4.2144 43.8043 3.83345 43.8043 3.25012C43.8043 2.53583 43.3098 2.02393 42.6197 2.02393C42.0562 2.02393 41.6537 2.30964 41.1592 2.89297V2.15488H38.8477V2.92869C39.6527 2.92869 39.8712 2.92869 39.8712 3.64297V5.83345C39.8712 6.57154 39.8712 6.64297 38.8477 6.64297" fill="white"/>
<path d="M34.6158 4.96422C34.6158 5.99993 35.0873 6.70231 35.9268 6.70231C36.6743 6.70231 37.0193 6.24993 37.1458 5.54755H38.0773C37.9278 6.90469 37.0538 7.64279 35.8003 7.64279C34.3052 7.64279 33.1782 6.70231 33.1782 4.90469C33.1782 3.26183 34.1787 2.03564 35.6623 2.03564C37.1458 2.03564 38.0658 3.19041 38.0658 4.97612H34.6043L34.6158 4.96422ZM35.6738 2.85707C35.0528 2.85707 34.6733 3.30945 34.6733 4.11898H36.6398C36.6398 3.28564 36.3293 2.85707 35.6738 2.85707Z" fill="white"/>
<path d="M11.9255 4.96422C11.9255 5.99993 12.4316 6.70231 13.2711 6.70231C14.0186 6.70231 14.3636 6.24993 14.4901 5.54755H15.3871C15.2261 6.90469 14.3866 7.64279 13.1446 7.64279C11.6495 7.64279 10.4995 6.70231 10.4995 4.90469C10.4995 3.26183 11.523 2.03564 13.0181 2.03564C14.5131 2.03564 15.3871 3.19041 15.3871 4.97612H11.9255V4.96422ZM13.0181 2.85707C12.3971 2.85707 12.0175 3.30945 12.0175 4.11898H13.9496C13.9496 3.24993 13.6391 2.85707 13.0066 2.85707" fill="white"/>
<path d="M30.5679 10.2021H25.8643V27.9164H30.5679V10.2021Z" fill="white"/>
</g>
<defs>
<clipPath id="clip0_96_21525">
<rect width="44" height="28" fill="white"/>
</clipPath>
</defs>
</svg>
