<svg width="28" height="28" viewBox="0 0 28 28" fill="none" xmlns="http://www.w3.org/2000/svg">
<path d="M13.1717 17.8385C13.1215 17.8939 13.0748 17.9524 13.0317 18.0135C12.9876 18.0785 12.9522 18.1492 12.9267 18.2235C12.8931 18.2896 12.8695 18.3604 12.8567 18.4335C12.851 18.5112 12.851 18.5892 12.8567 18.6668C12.8528 18.8199 12.8847 18.9717 12.95 19.1102C13.0024 19.2549 13.086 19.3864 13.1949 19.4953C13.3038 19.6042 13.4353 19.6878 13.58 19.7402C13.7197 19.8019 13.8707 19.8338 14.0234 19.8338C14.1761 19.8338 14.3271 19.8019 14.4667 19.7402C14.6115 19.6878 14.743 19.6042 14.8518 19.4953C14.9607 19.3864 15.0443 19.2549 15.0967 19.1102C15.1485 18.9683 15.1723 18.8177 15.1667 18.6668C15.1676 18.5133 15.1382 18.3611 15.0801 18.2189C15.0221 18.0768 14.9365 17.9475 14.8284 17.8385C14.7199 17.7291 14.5909 17.6424 14.4487 17.5831C14.3066 17.5239 14.1541 17.4934 14 17.4934C13.846 17.4934 13.6935 17.5239 13.5514 17.5831C13.4092 17.6424 13.2802 17.7291 13.1717 17.8385ZM14 2.3335C11.6926 2.3335 9.43697 3.01773 7.51839 4.29968C5.59982 5.58163 4.10447 7.40372 3.22145 9.53552C2.33843 11.6673 2.10739 14.0131 2.55755 16.2762C3.00771 18.5393 4.11885 20.6181 5.75047 22.2497C7.38208 23.8814 9.46088 24.9925 11.724 25.4427C13.9871 25.8928 16.3329 25.6618 18.4647 24.7788C20.5965 23.8957 22.4186 22.4004 23.7005 20.4818C24.9825 18.5632 25.6667 16.3076 25.6667 14.0002C25.6667 12.4681 25.3649 10.951 24.7786 9.53552C24.1923 8.12006 23.333 6.83393 22.2496 5.75058C21.1663 4.66723 19.8802 3.80787 18.4647 3.22157C17.0492 2.63526 15.5321 2.3335 14 2.3335ZM14 23.3335C12.1541 23.3335 10.3496 22.7861 8.81472 21.7605C7.27986 20.735 6.08359 19.2773 5.37717 17.5719C4.67075 15.8664 4.48592 13.9898 4.84605 12.1793C5.20618 10.3688 6.09509 8.70579 7.40038 7.4005C8.70567 6.09521 10.3687 5.2063 12.1792 4.84617C13.9897 4.48604 15.8663 4.67087 17.5718 5.37729C19.2772 6.08371 20.7349 7.27998 21.7604 8.81484C22.786 10.3497 23.3334 12.1542 23.3334 14.0002C23.3334 16.4755 22.35 18.8495 20.5997 20.5998C18.8494 22.3502 16.4754 23.3335 14 23.3335ZM14 8.16683C13.3853 8.16644 12.7813 8.32797 12.2488 8.63518C11.7163 8.94239 11.2741 9.38443 10.9667 9.91683C10.8823 10.0496 10.8256 10.1981 10.8001 10.3534C10.7745 10.5086 10.7807 10.6675 10.8181 10.8203C10.8555 10.9731 10.9235 11.1168 11.0179 11.2427C11.1123 11.3686 11.2312 11.474 11.3674 11.5528C11.5037 11.6315 11.6544 11.6819 11.8106 11.7009C11.9668 11.7198 12.1252 11.707 12.2763 11.6632C12.4275 11.6193 12.5681 11.5454 12.6899 11.4458C12.8117 11.3461 12.9121 11.2229 12.985 11.0835C13.0878 10.9055 13.2358 10.7577 13.4141 10.6553C13.5923 10.5529 13.7945 10.4993 14 10.5002C14.3095 10.5002 14.6062 10.6231 14.825 10.8419C15.0438 11.0607 15.1667 11.3574 15.1667 11.6668C15.1667 11.9762 15.0438 12.273 14.825 12.4918C14.6062 12.7106 14.3095 12.8335 14 12.8335C13.6906 12.8335 13.3939 12.9564 13.1751 13.1752C12.9563 13.394 12.8334 13.6907 12.8334 14.0002V15.1668C12.8334 15.4762 12.9563 15.773 13.1751 15.9918C13.3939 16.2106 13.6906 16.3335 14 16.3335C14.3095 16.3335 14.6062 16.2106 14.825 15.9918C15.0438 15.773 15.1667 15.4762 15.1667 15.1668V14.9568C15.9383 14.6769 16.587 14.1346 16.9993 13.4248C17.4116 12.7151 17.5613 11.883 17.4223 11.074C17.2833 10.2651 16.8644 9.53068 16.2389 8.99926C15.6133 8.46784 14.8208 8.1732 14 8.16683Z" fill="#49D600"/>
</svg>
