<svg width="111" height="33" viewBox="0 0 111 33" fill="none" xmlns="http://www.w3.org/2000/svg">
<path d="M109.342 1.38574C109.566 1.38574 109.791 1.44652 109.998 1.55938C110.205 1.67225 110.386 1.83721 110.498 2.05426C110.619 2.27131 110.679 2.49704 110.679 2.73145C110.679 2.97455 110.619 3.1916 110.498 3.40865C110.386 3.6257 110.213 3.79934 109.998 3.9122C109.782 4.03375 109.566 4.08584 109.333 4.08584C109.1 4.08584 108.876 4.03375 108.652 3.9122C108.436 3.79066 108.281 3.6257 108.16 3.40865C108.048 3.1916 107.979 2.97455 107.979 2.73145C107.979 2.50572 108.039 2.27999 108.16 2.05426C108.281 1.83721 108.444 1.67225 108.66 1.55938C108.902 1.44652 109.118 1.38574 109.342 1.38574ZM109.342 1.61147C109.143 1.61147 108.971 1.66357 108.781 1.76775C108.6 1.86325 108.453 2.00216 108.358 2.1758C108.263 2.34944 108.211 2.54913 108.211 2.74013C108.211 2.93982 108.263 3.13082 108.358 3.30446C108.453 3.48679 108.6 3.6257 108.781 3.7212C108.962 3.8167 109.143 3.86879 109.342 3.86879C109.54 3.86879 109.713 3.8167 109.903 3.7212C110.075 3.61702 110.213 3.48679 110.317 3.30446C110.412 3.13082 110.464 2.93114 110.464 2.74013C110.464 2.55781 110.412 2.35813 110.317 2.1758C110.213 2.00216 110.067 1.86325 109.894 1.76775C109.713 1.65488 109.54 1.61147 109.342 1.61147ZM108.755 3.48679V2.03689H109.247C109.42 2.03689 109.549 2.05426 109.618 2.0803C109.696 2.09767 109.756 2.14976 109.799 2.21921C109.842 2.27999 109.868 2.34944 109.868 2.43626C109.868 2.54045 109.825 2.63595 109.756 2.71409C109.687 2.80091 109.583 2.83564 109.454 2.84432C109.506 2.87036 109.549 2.89641 109.575 2.92246C109.635 2.98323 109.713 3.07873 109.791 3.20896L109.963 3.49547H109.687L109.558 3.26974C109.454 3.08741 109.368 2.97455 109.316 2.93114C109.273 2.89641 109.212 2.87905 109.126 2.87905H108.997V3.49547L108.755 3.48679ZM108.988 2.662H109.264C109.402 2.662 109.489 2.64463 109.549 2.60122C109.601 2.56649 109.618 2.50572 109.618 2.43626C109.618 2.39285 109.609 2.35813 109.583 2.33208C109.566 2.29735 109.532 2.26262 109.48 2.25394C109.437 2.23658 109.359 2.21921 109.247 2.21921H108.979V2.662H108.988Z" fill="white"/>
<path d="M33.5742 15.85H33.3499C33.3499 15.85 32.4612 17.187 30.468 17.187C27.3617 17.187 25.5928 14.73 25.5928 11.3875C25.5928 8.0449 27.3703 5.58789 30.468 5.58789C32.4612 5.58789 33.3499 6.92492 33.3499 6.92492H33.5742L33.7986 6.03067L34.0229 5.80494H35.5761L35.8004 6.03067V15.6243C35.8004 20.0868 33.3585 21.6496 30.7009 21.6496C28.0433 21.6496 26.4902 20.3126 26.2658 18.5241L26.4902 18.2983H28.2677L28.4748 18.5241C28.9148 19.4183 29.5792 19.6354 30.6923 19.6354C32.6855 19.644 33.5742 18.2983 33.5742 15.85ZM30.6923 7.59343C28.9148 7.59343 27.8103 8.93046 27.8103 11.3875C27.8103 13.8445 28.9148 15.1815 30.6923 15.1815C32.4698 15.1815 33.5742 14.0702 33.5742 11.3875C33.5742 8.71341 32.4612 7.59343 30.6923 7.59343Z" fill="white"/>
<path d="M44.0573 7.81891H42.9528C41.1754 7.81891 40.0709 8.48742 40.0709 11.1615V16.7353L39.8466 16.9611H38.0691L37.8447 16.7353V6.03042L38.0691 5.80469H39.6222L39.8466 6.03042L40.0709 6.92467H40.2952C40.9596 6.25615 41.624 5.81337 43.1772 5.81337H44.0659L44.2903 6.0391V7.60186L44.0573 7.81891Z" fill="white"/>
<path d="M44.6104 11.3875C44.6104 8.26195 46.1635 5.58789 49.7099 5.58789C53.2562 5.58789 54.8093 8.26195 54.8093 11.3875V12.056L54.585 12.2817H47.268L47.0436 12.5074C47.0436 12.9502 47.268 15.1815 49.9256 15.1815C50.8143 15.1815 51.7031 14.9558 52.1431 13.8445L52.3675 13.6187H54.1449L54.3693 13.8445C54.1449 15.633 52.5918 17.187 49.9342 17.187C46.3878 17.187 44.6104 14.73 44.6104 11.3875ZM52.3675 10.2675C52.3675 9.59897 52.1431 7.59343 49.7099 7.59343C47.268 7.59343 47.0522 9.59897 47.0522 10.2675L47.2766 10.4932H52.1517L52.3675 10.2675Z" fill="white"/>
<path d="M55.9219 11.3875C55.9219 8.26195 57.475 5.58789 61.0214 5.58789C64.5677 5.58789 66.1209 8.26195 66.1209 11.3875V12.056L65.8965 12.2817H58.5795L58.3551 12.5074C58.3551 12.9502 58.5795 15.1815 61.2371 15.1815C62.1258 15.1815 63.0146 14.9558 63.4546 13.8445L63.679 13.6187H65.4565L65.6808 13.8445C65.4565 15.633 63.9033 17.187 61.2457 17.187C57.6907 17.187 55.9219 14.73 55.9219 11.3875ZM63.679 10.2675C63.679 9.59897 63.4546 7.59343 61.0214 7.59343C58.5881 7.59343 58.3638 9.59897 58.3638 10.2675L58.5881 10.4932H63.4633L63.679 10.2675Z" fill="white"/>
<path d="M77.2005 16.9613H75.423L75.1987 16.7356V10.2675C75.1987 9.15619 74.9743 7.59343 72.9811 7.59343C70.9879 7.59343 70.0992 8.70473 70.0992 11.3875V16.7443L69.8748 16.97H68.0973L67.873 16.7443V6.03067L68.0973 5.80494H69.6505L69.8748 6.03067L70.0992 6.92492H70.3235C70.3235 6.92492 71.2122 5.58789 73.2055 5.58789C76.3117 5.58789 77.4162 7.59343 77.4162 10.2762V16.7443L77.2005 16.9613Z" fill="white"/>
<path d="M88.953 16.9612H87.3999L87.1755 16.7355L86.9512 15.8412H86.7268C86.7268 15.8412 85.8381 17.1783 83.8449 17.1783C80.7386 17.1783 78.9697 14.7212 78.9697 11.3787C78.9697 8.03611 80.7472 5.5791 83.8449 5.5791C85.8381 5.5791 86.7268 6.91613 86.7268 6.91613H86.9512V1.56802L87.1755 1.34229H88.953L89.1774 1.56802V16.7355L88.953 16.9612ZM84.0692 7.59333C82.2917 7.59333 81.1873 8.93035 81.1873 11.3874C81.1873 13.8444 82.2917 15.1814 84.0692 15.1814C85.8467 15.1814 86.9512 14.0701 86.9512 11.3874C86.9512 8.7133 85.8467 7.59333 84.0692 7.59333Z" fill="white"/>
<path d="M96.2691 5.58789C99.5911 5.58789 101.593 7.81916 101.593 11.3875C101.593 14.9558 99.5998 17.187 96.2691 17.187C92.9471 17.187 90.9453 14.9558 90.9453 11.3875C90.9453 7.81916 92.9385 5.58789 96.2691 5.58789ZM96.2691 15.1815C98.2623 15.1815 99.3754 13.8445 99.3754 11.3875C99.3754 8.93046 98.271 7.59343 96.2691 7.59343C94.2759 7.59343 93.1629 8.93046 93.1629 11.3875C93.1629 13.8358 94.2673 15.1815 96.2691 15.1815Z" fill="white"/>
<path d="M109.342 16.9611H107.564C106.011 16.9611 104.458 16.0669 104.458 14.0614V8.03604L104.234 7.81031H102.68L102.456 7.58458V6.02182L102.68 5.79609H104.234L104.458 5.57036V3.58218L104.682 3.35645H106.46L106.684 3.58218V5.58772L106.908 5.81345H109.35L109.575 6.03918V7.60194L109.35 7.82768H106.908L106.684 8.05341V14.0787C106.684 14.7472 107.124 14.973 107.573 14.973H109.35L109.575 15.1987V16.7615L109.342 16.9611Z" fill="white"/>
<path d="M83.5073 27.9261C83.5073 30.687 82.2217 32.7185 79.659 32.7185C78.0109 32.7185 77.0963 31.9806 76.7253 31.2426H76.5441L76.3629 32.3452L76.1817 32.5275H75.6294L75.4482 32.3452V19.8171L75.6294 19.6348H76.3629L76.5441 19.8171V24.6096H76.7253C77.0877 23.8716 78.0109 23.1336 79.659 23.1336C82.2217 23.1423 83.5073 25.1652 83.5073 27.9261ZM76.5441 27.9261C76.5441 30.5046 77.6399 31.7982 79.4778 31.7982C81.307 31.7982 82.4115 30.5046 82.4115 27.9261C82.4115 25.3475 81.3157 24.0539 79.4778 24.0539C77.6399 24.0626 76.5441 25.3475 76.5441 27.9261Z" fill="white"/>
<path d="M91.5576 32.5365H91.0053L90.8241 32.3542L90.6429 31.4339H90.4617C90.0993 31.9895 89.3659 32.7275 87.528 32.7275C85.5175 32.7275 84.4131 31.6249 84.4131 29.9666C84.4131 27.9437 85.8799 27.0148 88.2614 27.0148C89.3573 27.0148 90.4617 27.1971 90.4617 27.1971L90.6429 27.0148V26.4591C90.6429 24.8008 90.0907 24.0629 88.2614 24.0629C86.4322 24.0629 85.8799 24.9832 85.8799 25.9035L85.6987 26.0858H84.9653L84.7841 25.9035C84.7841 24.4275 85.8799 23.1426 88.2614 23.1426C91.0053 23.1426 91.7388 24.4362 91.7388 26.4591V32.3542L91.5576 32.5365ZM90.6429 28.2997L90.4617 28.1174C90.4617 28.1174 89.5471 27.935 88.4513 27.935C86.251 27.935 85.5175 28.673 85.5175 29.9579C85.5175 31.0606 86.0698 31.7985 87.7178 31.7985C89.7283 31.7985 90.6516 30.3226 90.6516 29.0377V28.2997H90.6429Z" fill="white"/>
<path d="M100.903 32.5364H100.169L99.9882 32.3541V26.8236C99.9882 24.9831 99.0736 24.0628 97.6067 24.0628C95.5962 24.0628 94.673 25.3564 94.673 27.3793V32.3541L94.4918 32.5364H93.7584L93.5771 32.3541V23.5071L93.7584 23.3248H94.3106L94.4918 23.5071L94.673 24.6097H94.8542C95.4064 23.6894 96.5022 23.1338 97.7879 23.1338C99.7984 23.1338 101.084 24.4274 101.084 26.815V32.3454L100.903 32.5364Z" fill="white"/>
<path d="M109.686 32.5362H109.323L108.961 32.3539L105.665 28.1171H105.484L104.198 29.4107L104.017 29.7753V32.3539L103.836 32.5362H103.102L102.921 32.3539V19.8171L103.102 19.6348H103.836L104.017 19.8171V27.9261H104.198L108.59 23.5069L108.952 23.3246H109.315L109.496 23.5069V24.0626L106.381 27.1968V27.3791L109.858 31.7982V32.3539L109.686 32.5362Z" fill="white"/>
<path d="M10.8548 22.3439C16.8497 22.3439 21.7095 17.454 21.7095 11.422C21.7095 5.38993 16.8497 0.5 10.8548 0.5C4.85984 0.5 0 5.38993 0 11.422C0 17.454 4.85984 22.3439 10.8548 22.3439Z" fill="url(#paint0_radial_2212_2558)"/>
<defs>
<radialGradient id="paint0_radial_2212_2558" cx="0" cy="0" r="1" gradientUnits="userSpaceOnUse" gradientTransform="translate(13.4231 8.2624) scale(14.3049 14.3935)">
<stop stop-color="#8CFF40"/>
<stop offset="0.1742" stop-color="#8CFF40"/>
<stop offset="0.2498" stop-color="#85FB3F"/>
<stop offset="0.3578" stop-color="#72F03A"/>
<stop offset="0.4853" stop-color="#54DE34"/>
<stop offset="0.6264" stop-color="#29C52A"/>
<stop offset="0.744" stop-color="#00AD21"/>
<stop offset="0.8471" stop-color="#02AE20"/>
<stop offset="0.898" stop-color="#0AB31C"/>
<stop offset="0.9375" stop-color="#17BC15"/>
<stop offset="0.9708" stop-color="#2AC80C"/>
<stop offset="1" stop-color="#41D700"/>
</radialGradient>
</defs>
</svg>
