<svg width="161" height="47" viewBox="0 0 161 47" fill="none" xmlns="http://www.w3.org/2000/svg">
<path d="M159.042 1.28809C159.368 1.28809 159.694 1.37648 159.995 1.54065C160.297 1.70482 160.56 1.94476 160.723 2.26047C160.899 2.57618 160.987 2.90452 160.987 3.24548C160.987 3.59908 160.899 3.91478 160.723 4.23049C160.56 4.5462 160.309 4.79877 159.995 4.96294C159.682 5.13974 159.368 5.21551 159.029 5.21551C158.69 5.21551 158.364 5.13974 158.038 4.96294C157.724 4.78614 157.498 4.5462 157.322 4.23049C157.159 3.91478 157.059 3.59908 157.059 3.24548C157.059 2.91714 157.146 2.58881 157.322 2.26047C157.498 1.94476 157.736 1.70482 158.05 1.54065C158.402 1.37648 158.715 1.28809 159.042 1.28809ZM159.042 1.61642C158.753 1.61642 158.502 1.69219 158.226 1.84373C157.962 1.98265 157.749 2.1847 157.611 2.43727C157.473 2.68983 157.397 2.98029 157.397 3.25811C157.397 3.54856 157.473 3.82639 157.611 4.07895C157.749 4.34415 157.962 4.5462 158.226 4.68512C158.489 4.82403 158.753 4.8998 159.042 4.8998C159.33 4.8998 159.581 4.82403 159.857 4.68512C160.108 4.53357 160.309 4.34415 160.46 4.07895C160.598 3.82639 160.673 3.53593 160.673 3.25811C160.673 2.99291 160.598 2.70246 160.46 2.43727C160.309 2.1847 160.096 1.98265 159.845 1.84373C159.581 1.67957 159.33 1.61642 159.042 1.61642ZM158.188 4.34415V2.23521H158.904C159.155 2.23521 159.343 2.26047 159.443 2.29835C159.556 2.32361 159.644 2.39938 159.707 2.50041C159.77 2.58881 159.807 2.68983 159.807 2.81612C159.807 2.96766 159.744 3.10657 159.644 3.22023C159.544 3.34651 159.393 3.39702 159.205 3.40965C159.28 3.44754 159.343 3.48542 159.38 3.52331C159.468 3.6117 159.581 3.75062 159.694 3.94004L159.945 4.35678H159.544L159.355 4.02844C159.205 3.76324 159.079 3.59908 159.004 3.53593C158.941 3.48542 158.853 3.46016 158.728 3.46016H158.54V4.35678L158.188 4.34415ZM158.527 3.14446H158.929C159.129 3.14446 159.255 3.1192 159.343 3.05606C159.418 3.00554 159.443 2.91714 159.443 2.81612C159.443 2.75298 159.431 2.70246 159.393 2.66458C159.368 2.61406 159.318 2.56355 159.242 2.55092C159.18 2.52567 159.067 2.50041 158.904 2.50041H158.514V3.14446H158.527Z" fill="white"/>
<path d="M48.834 22.3271H48.5077C48.5077 22.3271 47.2149 24.2719 44.3157 24.2719C39.7975 24.2719 37.2246 20.6981 37.2246 15.8361C37.2246 10.9742 39.81 7.40039 44.3157 7.40039C47.2149 7.40039 48.5077 9.34516 48.5077 9.34516H48.834L49.1603 8.04444L49.4866 7.7161H51.7457L52.072 8.04444V21.9988C52.072 28.4898 48.5202 30.7629 44.6546 30.7629C40.789 30.7629 38.5299 28.8181 38.2036 26.2166L38.5299 25.8883H41.1153L41.4165 26.2166C42.0566 27.5174 43.023 27.8331 44.6421 27.8331C47.5413 27.8457 48.834 25.8883 48.834 22.3271ZM44.6421 10.3175C42.0566 10.3175 40.4501 12.2623 40.4501 15.8361C40.4501 19.41 42.0566 21.3547 44.6421 21.3547C47.2275 21.3547 48.834 19.7383 48.834 15.8361C48.834 11.9466 47.2149 10.3175 44.6421 10.3175Z" fill="white"/>
<path d="M64.0834 10.6458H62.4769C59.8914 10.6458 58.2849 11.6182 58.2849 15.5078V23.6152L57.9586 23.9435H55.3732L55.0469 23.6152V8.0444L55.3732 7.71606H57.6323L57.9586 8.0444L58.2849 9.34512H58.6113C59.5777 8.37274 60.5441 7.72869 62.8032 7.72869H64.0959L64.4222 8.05703V10.3301L64.0834 10.6458Z" fill="white"/>
<path d="M64.8867 15.8361C64.8867 11.2899 67.1458 7.40039 72.3042 7.40039C77.4625 7.40039 79.7216 11.2899 79.7216 15.8361V16.8085L79.3953 17.1369H68.7523L68.426 17.4652C68.426 18.1092 68.7523 21.3547 72.6179 21.3547C73.9107 21.3547 75.2034 21.0264 75.8435 19.41L76.1698 19.0816H78.7552L79.0815 19.41C78.7552 22.0114 76.4961 24.2719 72.6305 24.2719C67.4722 24.2719 64.8867 20.6981 64.8867 15.8361ZM76.1698 14.2071C76.1698 13.2347 75.8435 10.3175 72.3042 10.3175C68.7523 10.3175 68.4386 13.2347 68.4386 14.2071L68.7649 14.5354H75.856L76.1698 14.2071Z" fill="white"/>
<path d="M81.3398 15.8361C81.3398 11.2899 83.599 7.40039 88.7573 7.40039C93.9156 7.40039 96.1748 11.2899 96.1748 15.8361V16.8085L95.8484 17.1369H85.2055L84.8791 17.4652C84.8791 18.1092 85.2055 21.3547 89.0711 21.3547C90.3638 21.3547 91.6565 21.0264 92.2966 19.41L92.6229 19.0816H95.2084L95.5347 19.41C95.2084 22.0114 92.9492 24.2719 89.0836 24.2719C83.9127 24.2719 81.3398 20.6981 81.3398 15.8361ZM92.6229 14.2071C92.6229 13.2347 92.2966 10.3175 88.7573 10.3175C85.218 10.3175 84.8917 13.2347 84.8917 14.2071L85.218 14.5354H92.3091L92.6229 14.2071Z" fill="white"/>
<path d="M112.29 23.9435H109.705L109.378 23.6152V14.2071C109.378 12.5906 109.052 10.3175 106.153 10.3175C103.253 10.3175 101.961 11.934 101.961 15.8361V23.6278L101.634 23.9562H99.049L98.7227 23.6278V8.04444L99.049 7.7161H101.308L101.634 8.04444L101.961 9.34516H102.287C102.287 9.34516 103.58 7.40039 106.479 7.40039C110.997 7.40039 112.604 10.3175 112.604 14.2197V23.6278L112.29 23.9435Z" fill="white"/>
<path d="M129.384 23.9435H127.125L126.799 23.6152L126.473 22.3145H126.146C126.146 22.3145 124.854 24.2592 121.954 24.2592C117.436 24.2592 114.863 20.6854 114.863 15.8235C114.863 10.9616 117.449 7.38774 121.954 7.38774C124.854 7.38774 126.146 9.33251 126.146 9.33251H126.473V1.55344L126.799 1.2251H129.384L129.711 1.55344V23.6152L129.384 23.9435ZM122.281 10.3175C119.695 10.3175 118.089 12.2623 118.089 15.8361C118.089 19.4099 119.695 21.3547 122.281 21.3547C124.866 21.3547 126.473 19.7383 126.473 15.8361C126.473 11.9466 124.866 10.3175 122.281 10.3175Z" fill="white"/>
<path d="M140.027 7.40039C144.859 7.40039 147.771 10.6459 147.771 15.8361C147.771 21.0264 144.872 24.2719 140.027 24.2719C135.195 24.2719 132.283 21.0264 132.283 15.8361C132.283 10.6459 135.182 7.40039 140.027 7.40039ZM140.027 21.3547C142.926 21.3547 144.545 19.41 144.545 15.8361C144.545 12.2623 142.939 10.3175 140.027 10.3175C137.128 10.3175 135.509 12.2623 135.509 15.8361C135.509 19.3973 137.115 21.3547 140.027 21.3547Z" fill="white"/>
<path d="M159.041 23.9434H156.455C154.196 23.9434 151.937 22.6427 151.937 19.7256V10.9615L151.611 10.6331H149.352L149.025 10.3048V8.03169L149.352 7.70336H151.611L151.937 7.37502V4.48312L152.263 4.15479H154.849L155.175 4.48312V7.40027L155.502 7.72861H159.053L159.38 8.05695V10.3301L159.053 10.6584H155.502L155.175 10.9867V19.7508C155.175 20.7232 155.815 21.0515 156.468 21.0515H159.053L159.38 21.3799V23.653L159.041 23.9434Z" fill="white"/>
<path d="M121.465 39.8931C121.465 43.9089 119.595 46.864 115.868 46.864C113.471 46.864 112.14 45.7905 111.601 44.7171H111.337L111.073 46.3209L110.81 46.5861H110.007L109.743 46.3209V28.0982L110.007 27.833H111.073L111.337 28.0982V35.0691H111.601C112.128 33.9956 113.471 32.9222 115.868 32.9222C119.595 32.9349 121.465 35.8773 121.465 39.8931ZM111.337 39.8931C111.337 43.6437 112.931 45.5253 115.604 45.5253C118.265 45.5253 119.871 43.6437 119.871 39.8931C119.871 36.1425 118.277 34.2608 115.604 34.2608C112.931 34.2735 111.337 36.1425 111.337 39.8931Z" fill="white"/>
<path d="M133.175 46.5987H132.372L132.108 46.3335L131.845 44.9949H131.581C131.054 45.8031 129.987 46.8765 127.314 46.8765C124.39 46.8765 122.783 45.2727 122.783 42.8607C122.783 39.9183 124.917 38.5671 128.381 38.5671C129.975 38.5671 131.581 38.8323 131.581 38.8323L131.845 38.5671V37.7589C131.845 35.3468 131.041 34.2734 128.381 34.2734C125.72 34.2734 124.917 35.612 124.917 36.9506L124.653 37.2158H123.586L123.323 36.9506C123.323 34.8038 124.917 32.9348 128.381 32.9348C132.372 32.9348 133.439 34.8164 133.439 37.7589V46.3335L133.175 46.5987ZM131.845 40.4361L131.581 40.1709C131.581 40.1709 130.251 39.9057 128.657 39.9057C125.456 39.9057 124.39 40.9791 124.39 42.8481C124.39 44.4519 125.193 45.5253 127.59 45.5253C130.514 45.5253 131.857 43.3785 131.857 41.5095V40.4361H131.845Z" fill="white"/>
<path d="M146.768 46.5989H145.701L145.437 46.3337V38.2894C145.437 35.6122 144.107 34.2736 141.973 34.2736C139.049 34.2736 137.706 36.1552 137.706 39.0976V46.3337L137.443 46.5989H136.376L136.112 46.3337V33.4654L136.376 33.2002H137.179L137.443 33.4654L137.706 35.0692H137.97C138.773 33.7306 140.367 32.9224 142.237 32.9224C145.161 32.9224 147.031 34.804 147.031 38.2768V46.321L146.768 46.5989Z" fill="white"/>
<path d="M159.544 46.5988H159.017L158.489 46.3336L153.695 40.1709H153.432L151.561 42.0525L151.298 42.5829V46.3336L151.034 46.5988H149.968L149.704 46.3336V28.0982L149.968 27.833H151.034L151.298 28.0982V39.8931H151.561L157.95 33.4653L158.477 33.2001H159.004L159.268 33.4653V34.2735L154.737 38.8323V39.0975L159.795 45.5253V46.3336L159.544 46.5988Z" fill="white"/>
<path d="M15.7887 31.773C24.5086 31.773 31.5775 24.6603 31.5775 15.8865C31.5775 7.11262 24.5086 0 15.7887 0C7.06886 0 0 7.11262 0 15.8865C0 24.6603 7.06886 31.773 15.7887 31.773Z" fill="url(#paint0_radial_595_5914)"/>
<defs>
<radialGradient id="paint0_radial_595_5914" cx="0" cy="0" r="1" gradientUnits="userSpaceOnUse" gradientTransform="translate(19.5246 11.2908) scale(20.8071 20.9359)">
<stop stop-color="#8CFF40"/>
<stop offset="0.1742" stop-color="#8CFF40"/>
<stop offset="0.2498" stop-color="#85FB3F"/>
<stop offset="0.3578" stop-color="#72F03A"/>
<stop offset="0.4853" stop-color="#54DE34"/>
<stop offset="0.6264" stop-color="#29C52A"/>
<stop offset="0.744" stop-color="#00AD21"/>
<stop offset="0.8471" stop-color="#02AE20"/>
<stop offset="0.898" stop-color="#0AB31C"/>
<stop offset="0.9375" stop-color="#17BC15"/>
<stop offset="0.9708" stop-color="#2AC80C"/>
<stop offset="1" stop-color="#41D700"/>
</radialGradient>
</defs>
</svg>
