<svg width="32" height="32" viewBox="0 0 32 32" fill="none" xmlns="http://www.w3.org/2000/svg">
<path d="M17.5 14.6665H26.5C26.8978 14.6665 27.2794 14.807 27.5607 15.057C27.842 15.3071 28 15.6462 28 15.9998C28 16.3535 27.842 16.6926 27.5607 16.9426C27.2794 17.1927 26.8978 17.3332 26.5 17.3332H17.5H14.5H5.5C5.10218 17.3332 4.72064 17.1927 4.43934 16.9426C4.15804 16.6926 4 16.3535 4 15.9998C4 15.6462 4.15804 15.3071 4.43934 15.057C4.72064 14.807 5.10218 14.6665 5.5 14.6665H14.5H17.5Z" fill="white"/>
<path d="M17.5 8H26.5C26.8978 8 27.2794 8.14048 27.5607 8.39052C27.842 8.64057 28 8.97971 28 9.33333C28 9.68696 27.842 10.0261 27.5607 10.2761C27.2794 10.5262 26.8978 10.6667 26.5 10.6667H17.5H14.5H5.5C5.10218 10.6667 4.72064 10.5262 4.43934 10.2761C4.15804 10.0261 4 9.68696 4 9.33333C4 8.97971 4.15804 8.64057 4.43934 8.39052C4.72064 8.14048 5.10218 8 5.5 8H14.5H17.5Z" fill="white"/>
<path d="M17.5 21.3335H26.5C26.8978 21.3335 27.2794 21.474 27.5607 21.724C27.842 21.9741 28 22.3132 28 22.6668C28 23.0205 27.842 23.3596 27.5607 23.6096C27.2794 23.8597 26.8978 24.0002 26.5 24.0002H17.5H14.5H5.5C5.10218 24.0002 4.72064 23.8597 4.43934 23.6096C4.15804 23.3596 4 23.0205 4 22.6668C4 22.3132 4.15804 21.9741 4.43934 21.724C4.72064 21.474 5.10218 21.3335 5.5 21.3335H14.5H17.5Z" fill="white"/>
</svg>
