<svg width="166" height="25" viewBox="0 0 166 25" fill="none" xmlns="http://www.w3.org/2000/svg">
<path d="M29.9185 14.2582H35.695C35.695 11.7822 34.0804 10.7959 32.8684 10.7959C31.4756 10.7959 30.0171 11.9418 29.9185 14.2582ZM115.777 14.2172H121.554C121.554 11.7413 119.935 10.755 118.727 10.755C117.335 10.755 115.876 11.9009 115.777 14.2172ZM133.21 14.1804H138.986C138.986 11.7044 137.367 10.7182 136.16 10.7182C134.767 10.7182 133.308 11.8641 133.21 14.1804ZM164.455 23.6504C164.487 23.6259 164.504 23.5932 164.504 23.5522C164.504 23.5113 164.487 23.4786 164.459 23.454C164.426 23.4295 164.377 23.4172 164.303 23.4172H164.175V23.6873H164.29C164.368 23.6873 164.422 23.675 164.455 23.6504ZM164.487 23.8387C164.529 23.8551 164.561 23.8714 164.582 23.8919C164.611 23.9165 164.639 23.9533 164.668 24.0024C164.668 24.0065 164.73 24.1129 164.845 24.3175H164.524C164.422 24.1088 164.352 23.986 164.315 23.9451C164.278 23.9083 164.241 23.8837 164.208 23.8837C164.2 23.8837 164.188 23.8837 164.175 23.8878V24.3175H163.916V23.2289H164.389C164.524 23.2289 164.611 23.2576 164.672 23.3108C164.734 23.3681 164.767 23.4417 164.767 23.5318C164.767 23.6054 164.742 23.6668 164.697 23.72C164.652 23.7732 164.594 23.8141 164.492 23.8346M164.923 24.3503C165.083 24.1907 165.165 23.9983 165.165 23.7691C165.165 23.54 165.083 23.3476 164.923 23.188C164.763 23.0284 164.57 22.9465 164.344 22.9465C164.118 22.9465 163.925 23.0284 163.76 23.188C163.6 23.3476 163.522 23.54 163.522 23.7691C163.522 23.9983 163.604 24.1866 163.76 24.3503C163.925 24.5099 164.118 24.5917 164.344 24.5917C164.57 24.5917 164.763 24.5099 164.923 24.3503ZM165.358 23.7732C165.358 23.9574 165.313 24.1211 165.223 24.2807C165.128 24.4403 165.005 24.5631 164.849 24.6531C164.689 24.7431 164.52 24.7882 164.34 24.7882C164.159 24.7882 163.99 24.7431 163.83 24.6531C163.674 24.5631 163.551 24.4403 163.456 24.2807C163.366 24.1211 163.321 23.9574 163.321 23.7732C163.321 23.5891 163.366 23.4213 163.456 23.2658C163.551 23.1061 163.674 22.9834 163.83 22.8933C163.99 22.7992 164.159 22.7583 164.34 22.7583C164.52 22.7583 164.693 22.8033 164.849 22.8933C165.005 22.9834 165.128 23.1061 165.223 23.2658C165.313 23.4254 165.358 23.5932 165.358 23.7732ZM162.988 24.7472H157.667L152.15 17.5567L150.346 18.8909V20.2823H151.92V24.7431H143.752V20.2987H145.301V4.66126H142.98V0.278198H150.346V14.3482L154.036 11.6594H151.714V7.17406H161.661V11.6594H160.112L156.225 14.5365L160.662 20.2987H162.984V24.7472H162.988ZM143.81 15.9361C143.81 16.2962 143.81 16.6523 143.777 17.0452H133.201C132.93 20.4297 134.192 21.4528 136.151 21.4528C137.786 21.4528 138.999 20.3887 138.999 18.7067H143.555C143.456 21.6697 141.874 25.091 135.86 25.091C129.845 25.091 126.998 20.7571 126.998 15.9034C126.998 11.5694 129.906 6.94078 135.765 6.94078C141.624 6.94078 143.81 10.8164 143.81 15.932M126.373 15.977C126.373 16.3372 126.373 16.6932 126.34 17.0861H115.765C115.494 20.4706 116.755 21.4937 118.715 21.4937C120.35 21.4937 121.566 20.4337 121.566 18.7476H126.123C126.024 21.7147 124.442 25.1319 118.427 25.1319C112.413 25.1319 109.561 20.798 109.561 15.9443C109.561 11.6103 112.474 6.9858 118.329 6.9858C124.183 6.9858 126.373 10.8614 126.373 15.977ZM110.054 11.6308H108.505L104.582 24.78H99.3764L96.9113 17.5772L94.7297 24.78H89.4174L85.0173 11.6308H83.4684V7.17815H92.6755V11.6308H90.3501L92.7494 18.633L95.9088 7.17406H98.7396L102.618 18.629L104.68 11.6267H102.359V7.17406H110.058V11.6267L110.054 11.6308ZM73.2999 11.8109C73.2999 12.4288 73.7929 12.8544 75.5226 13.4069L78.0082 14.2213C80.2966 14.9703 83.0452 16.6646 83.0452 19.7585C83.0452 23.409 80.2966 25.1688 76.9277 25.1688C74.2489 25.1688 72.129 23.8633 71.5702 23.278L71.562 24.7759H67.0591V18.6822H71.4634C71.5949 20.6711 73.3615 21.7147 74.9967 21.7147C76.3032 21.7147 76.9236 21.1622 76.9236 20.4788C76.9236 19.6644 76.4347 19.206 74.2079 18.4898L72.018 17.7695C69.7954 17.0533 67.2769 15.4245 67.2769 12.4616C67.2769 8.84379 70.4815 7.01854 73.23 7.01854C75.9786 7.01854 77.4371 7.80839 78.1232 8.59006L78.1356 7.21907H82.6467V12.7276H78.0082C77.9425 11.2297 76.4716 10.5708 75.0008 10.5708C73.8545 10.5708 73.2999 11.0906 73.2999 11.8068M66.829 11.6308H65.2801L61.3566 24.78H56.147L53.6819 17.5772L51.5003 24.78H46.184L41.7838 11.6308H40.2349V7.17815H49.442V11.6308H47.1207L49.52 18.633L52.6795 7.17406H55.5102L59.3886 18.629L61.451 11.6267H59.1298V7.17406H66.829V11.6267V11.6308ZM40.5143 16.0138C40.5143 16.374 40.5143 16.73 40.4814 17.1229H29.9062C29.635 20.5074 30.9004 21.5305 32.8561 21.5305C34.4912 21.5305 35.7032 20.4665 35.7032 18.7845H40.2636C40.165 21.7474 38.5833 25.1688 32.5685 25.1688C26.5537 25.1688 23.7024 20.8348 23.7024 15.9811C23.7024 11.6472 26.6153 7.01854 32.4699 7.01854C38.3244 7.01854 40.5143 10.8941 40.5143 16.0098M25.0705 4.74311H22.7492V24.78H18.4682L7.99979 11.1274V20.3151H10.3211V24.78H0.64151V20.3151H2.9628V4.74311H0.64151V0.278198H7.99157L17.7163 12.9854V4.74311H15.395V0.278198H25.0746V4.74311H25.0705Z" fill="white"/>
</svg>
