<svg width="161" height="43" viewBox="0 0 161 43" fill="none" xmlns="http://www.w3.org/2000/svg">
<rect x="0.535821" y="0.535821" width="159.675" height="41.794" rx="3.75075" fill="black" stroke="#999999" stroke-width="1.07164"/>
<path d="M57.3786 11.2985C57.4172 12.1321 57.1123 12.9452 56.5351 13.5479C55.89 14.218 54.9902 14.582 54.0607 14.5489C53.1253 14.5581 52.2257 14.1897 51.5653 13.5272C50.9048 12.8647 50.5394 11.9639 50.5516 11.0285C50.5394 10.0932 50.9048 9.19237 51.5653 8.52984C52.2257 7.86732 53.1253 7.499 54.0607 7.50816C54.5362 7.50658 55.0069 7.60227 55.4441 7.78934C55.8511 7.9535 56.2134 8.21174 56.5013 8.5429L55.9052 9.139C55.4501 8.59765 54.7669 8.30186 54.0607 8.34045C53.3528 8.33708 52.674 8.62143 52.1799 9.12828C51.6857 9.63514 51.4187 10.321 51.4401 11.0285C51.425 12.1006 52.0564 13.0765 53.0405 13.5021C54.0246 13.9277 55.1681 13.7195 55.939 12.9743C56.285 12.5992 56.4847 12.1122 56.5013 11.6021H54.0607V10.7923H57.3336C57.3636 10.9594 57.3787 11.1288 57.3786 11.2985Z" fill="white"/>
<path d="M62.5298 8.48674H59.493V10.6237H62.2598V11.4335H59.493V13.5705H62.5298V14.4028H58.5933V7.65445H62.5298V8.48674Z" fill="white"/>
<path d="M66.2189 14.4028H65.3529V8.48674H63.4634V7.65445H68.1535V8.48674H66.2189V14.4028Z" fill="white"/>
<path d="M71.4602 14.4028V7.65445H72.3262V14.4028H71.4602Z" fill="white"/>
<path d="M76.1725 14.4028H75.3065V8.48674H73.417V7.65445H78.0508V8.48674H76.1725V14.4028Z" fill="white"/>
<path fill-rule="evenodd" clip-rule="evenodd" d="M80.8966 11.0285C80.876 11.9602 81.233 12.8607 81.8863 13.5254C83.2551 14.8865 85.4663 14.8865 86.8351 13.5254C87.4885 12.8607 87.8454 11.9602 87.8249 11.0285C87.8454 10.0967 87.4885 9.19622 86.8351 8.53161C86.1805 7.87224 85.2898 7.5014 84.3607 7.5014C83.4316 7.5014 82.5409 7.87224 81.8863 8.53161C81.233 9.19622 80.876 10.0967 80.8966 11.0285ZM86.1941 12.9631C85.1804 13.9726 83.5412 13.9726 82.5275 12.9631C82.023 12.448 81.7508 11.7492 81.774 11.0286C81.7388 10.3144 81.9944 9.6165 82.4825 9.09404C83.4963 8.08454 85.1354 8.08454 86.1491 9.09404C86.6701 9.60154 86.959 10.3013 86.9476 11.0286C86.9708 11.7492 86.6986 12.448 86.1941 12.9631Z" fill="white"/>
<path d="M89.0508 14.4028V7.65445H90.108L93.3922 12.9069V11.6022V7.65445H94.2582V14.4028H93.3584L89.9168 8.90289V10.2076V14.4028H89.0508Z" fill="white"/>
<path fill-rule="evenodd" clip-rule="evenodd" d="M57.7386 25.7173V27.7418H62.5974C62.5212 28.6953 62.1248 29.5951 61.4727 30.2949C60.4897 31.2961 59.1294 31.8354 57.7274 31.7795C54.7458 31.7795 52.3287 29.3624 52.3287 26.3809C52.3287 23.3993 54.7458 20.9822 57.7274 20.9822C59.0971 20.9599 60.4197 21.4816 61.4052 22.4331L62.8336 21.0047C61.4895 19.6436 59.6515 18.8849 57.7386 18.9015C55.0156 18.7955 52.4529 20.1878 51.0599 22.5299C49.6669 24.872 49.6669 27.7885 51.0599 30.1306C52.4529 32.4727 55.0156 33.865 57.7386 33.759C59.6864 33.847 61.577 33.0883 62.9236 31.6783C64.1019 30.3836 64.731 28.6818 64.6781 26.932C64.6818 26.5057 64.6441 26.0801 64.5657 25.661L57.7386 25.7173ZM70.2119 24.2439C67.5734 24.2501 65.4389 26.3929 65.4431 29.0314C65.4472 31.6699 67.5884 33.806 70.2268 33.804C72.8653 33.8019 75.0031 31.6624 75.0032 29.0239C75.0217 27.7467 74.5209 26.5166 73.6155 25.6155C72.7102 24.7143 71.4778 24.2194 70.2006 24.2439H70.2119ZM75.9255 29.0388C75.9173 26.4018 78.0461 24.2563 80.683 24.2439C81.9602 24.2194 83.1926 24.7143 84.098 25.6155C85.0033 26.5166 85.5041 27.7467 85.4856 29.0239C85.4856 31.6609 83.35 33.7998 80.713 33.8039C78.076 33.808 75.9338 31.6758 75.9255 29.0388ZM77.8622 30.2819C78.3758 31.357 79.4944 32.0089 80.683 31.9258C81.429 31.9085 82.1364 31.5906 82.6446 31.0442C83.1529 30.4978 83.4189 29.7693 83.3823 29.024C83.3794 27.8325 82.6484 26.7639 81.5391 26.3293C80.4297 25.8946 79.1674 26.1823 78.3559 27.0547C77.5444 27.927 77.3486 29.2068 77.8622 30.2819ZM67.3837 30.2905C67.901 31.3649 69.0228 32.0136 70.212 31.9258H70.2008C70.9468 31.9085 71.6542 31.5906 72.1624 31.0442C72.6707 30.4978 72.9367 29.7693 72.9001 29.024C72.8968 27.8316 72.1644 26.7625 71.0537 26.3288C69.9429 25.8951 68.6799 26.1851 67.8696 27.0599C67.0592 27.9347 66.8665 29.2161 67.3837 30.2905ZM104.606 24.2439C106.47 24.3125 108.099 25.5252 108.7 27.2919L108.936 27.798L102.536 30.4411C102.937 31.3546 103.856 31.9299 104.853 31.8919C105.816 31.8944 106.709 31.3903 107.204 30.5648L108.835 31.6895C107.947 33.0183 106.451 33.8126 104.853 33.804C103.583 33.8226 102.36 33.3238 101.464 32.4223C100.569 31.5208 100.079 30.2941 100.107 29.0239C100.029 27.7828 100.469 26.5649 101.321 25.6594C102.173 24.7538 103.362 24.2414 104.606 24.2439ZM102.176 28.8889C102.13 28.1862 102.369 27.4945 102.839 26.9697C103.308 26.445 103.969 26.1314 104.673 26.0996C105.415 26.0508 106.114 26.4491 106.45 27.1119L102.176 28.8889ZM99.0833 33.5229H96.9801V19.4639H99.0833V33.5229ZM93.5386 25.3125H93.4598C92.8187 24.5957 91.9022 24.1865 90.9405 24.1878C88.3875 24.3116 86.3812 26.4175 86.3812 28.9734C86.3812 31.5294 88.3875 33.6353 90.9405 33.7591C91.9053 33.7753 92.8278 33.3635 93.4598 32.6344H93.5273V33.3205C93.5273 35.1537 92.5488 36.1322 90.9742 36.1322C89.9016 36.1071 88.9505 35.4361 88.5673 34.4339L86.734 35.1987C87.44 36.916 89.1176 38.0329 90.9742 38.0218C93.4373 38.0218 95.4731 36.5709 95.4731 33.0393V24.5252H93.5386V25.3125ZM91.128 31.9254L91.1315 31.9257H91.1202L91.128 31.9254ZM93.0232 31.0235C92.5405 31.5697 91.8561 31.8953 91.128 31.9254C89.6258 31.7912 88.4742 30.5325 88.4742 29.0239C88.4742 27.5142 89.6276 26.2547 91.1315 26.1222C91.8582 26.1595 92.539 26.4886 93.0197 27.0349C93.5004 27.5812 93.7401 28.2984 93.6846 29.0239C93.7466 29.7528 93.5076 30.4753 93.0232 31.0235ZM118.552 19.4638H113.513V33.5227H115.617V28.1916H118.552C120.186 28.309 121.749 27.5038 122.601 26.1052C123.454 24.7066 123.454 22.9488 122.601 21.5502C121.749 20.1515 120.186 19.3464 118.552 19.4638ZM115.617 26.2121H118.552L118.597 26.2458C119.93 26.2458 121.01 25.1657 121.01 23.8333C121.01 22.5009 119.93 21.4208 118.597 21.4208H115.617V26.2121ZM131.52 24.1877C129.955 24.0942 128.484 24.938 127.775 26.3359L129.642 27.112C130.018 26.4188 130.768 26.013 131.554 26.0773C132.093 26.0143 132.635 26.1706 133.058 26.5111C133.481 26.8516 133.75 27.3477 133.803 27.888V28.0343C133.128 27.6766 132.374 27.4912 131.61 27.4944C129.597 27.4944 127.561 28.6191 127.561 30.6549C127.601 31.5318 127.994 32.3552 128.651 32.9378C129.308 33.5204 130.172 33.8125 131.048 33.7478C132.127 33.8253 133.162 33.3077 133.747 32.3982H133.815V33.5229H135.839V28.113C135.839 25.6499 133.972 24.2215 131.576 24.2215L131.52 24.1877ZM129.62 30.6997C129.62 31.5433 130.576 31.8919 131.262 31.8919L131.318 31.9257C132.585 31.8948 133.636 30.9352 133.781 29.6762C133.197 29.3505 132.537 29.1874 131.869 29.2038C130.812 29.2038 129.62 29.575 129.62 30.6997ZM143.217 24.525L140.81 30.621H140.743L138.246 24.525H135.997L139.742 33.0504L137.605 37.7855H139.798L145.557 24.525H143.217ZM126.414 33.5229H124.311V19.4639H126.414V33.5229Z" fill="white"/>
<path d="M15.7865 8.26165C15.4279 8.70485 15.2511 9.26764 15.2916 9.83626V34.715C15.2573 35.2866 15.4424 35.8497 15.809 36.2896L15.8877 36.3683L29.8004 22.4443V22.1182L15.8652 8.18292L15.7865 8.26165Z" fill="#00D8FF"/>
<path d="M34.4119 27.0895L29.8005 22.4444V22.1182L34.4119 17.4619L34.5131 17.5181L40.0355 20.6561C41.6101 21.5446 41.6101 23.0067 40.0355 23.9065L34.5356 27.0332L34.4119 27.0895Z" fill="url(#paint0_linear_595_5252)"/>
<path d="M34.5471 27.0332L29.8008 22.2757L15.7869 36.2896C16.449 36.8717 17.4317 36.9001 18.1263 36.3571L34.5584 27.022" fill="#F1324B"/>
<path d="M34.5472 17.5293L18.115 8.19416C17.4205 7.65123 16.4378 7.67958 15.7756 8.26165L29.8009 22.2756L34.5472 17.5293Z" fill="#00F076"/>
<path opacity="0.2" d="M34.4122 26.9208L18.115 36.1997C17.4481 36.6983 16.5325 36.6983 15.8656 36.1997L15.7869 36.2784L15.8656 36.3572C16.5313 36.8595 17.4494 36.8595 18.115 36.3572L34.5471 27.022L34.4122 26.9208Z" fill="black"/>
<path d="M15.7866 36.1322C15.42 35.6923 15.235 35.1292 15.2693 34.5576V34.7263C15.235 35.2979 15.42 35.861 15.7866 36.3009L15.8654 36.2222L15.7866 36.1322Z" fill="black"/>
<path d="M40.0357 23.7378L34.4121 26.9207L34.5133 27.022L40.0357 23.8953C40.6735 23.5956 41.1025 22.9779 41.1604 22.2757C41.0322 22.9109 40.6168 23.4509 40.0357 23.7378Z" fill="black"/>
<path d="M18.1148 8.3517L40.0355 20.8136C40.6167 21.1004 41.0321 21.6404 41.1602 22.2757C41.1023 21.5734 40.6733 20.9557 40.0355 20.6561L18.1148 8.19424C16.5514 7.29446 15.2917 8.03678 15.2917 9.83632V10.005C15.2917 8.20548 16.5514 7.46317 18.1148 8.3517Z" fill="black"/>
<defs>
<linearGradient id="paint0_linear_595_5252" x1="42.0937" y1="10.8032" x2="14.8868" y2="10.8032" gradientUnits="userSpaceOnUse">
<stop stop-color="#FFE000"/>
<stop offset="0.41" stop-color="#FFBD00"/>
<stop offset="0.78" stop-color="#FFA500"/>
<stop offset="1" stop-color="#FF9C00"/>
</linearGradient>
</defs>
</svg>
