<svg width="159" height="22" viewBox="0 0 159 22" fill="none" xmlns="http://www.w3.org/2000/svg">
<path d="M53.0725 1.58022C53.2329 1.08656 53.9313 1.08656 54.0917 1.58022L55.8678 7.04646C55.9396 7.26723 56.1453 7.4167 56.3774 7.4167H62.125C62.644 7.4167 62.8598 8.08092 62.4399 8.38601L57.7901 11.7643C57.6023 11.9008 57.5237 12.1426 57.5954 12.3634L59.3715 17.8296C59.5319 18.3233 58.9669 18.7338 58.547 18.4287L53.8971 15.0504C53.7093 14.9139 53.455 14.9139 53.2672 15.0504L48.6173 18.4287C48.1974 18.7338 47.6324 18.3233 47.7928 17.8296L49.5689 12.3634C49.6406 12.1426 49.562 11.9008 49.3742 11.7643L44.7244 8.38601C44.3044 8.08092 44.5202 7.4167 45.0393 7.4167H50.7869C51.019 7.4167 51.2247 7.26723 51.2965 7.04646L53.0725 1.58022Z" fill="#49D600"/>
<path d="M76.6487 1.58022C76.8091 1.08656 77.5075 1.08656 77.6679 1.58022L79.444 7.04646C79.5157 7.26723 79.7215 7.4167 79.9536 7.4167H85.7011C86.2202 7.4167 86.436 8.08092 86.0161 8.38601L81.3662 11.7643C81.1784 11.9008 81.0998 12.1426 81.1716 12.3634L82.9477 17.8296C83.1081 18.3233 82.5431 18.7338 82.1231 18.4287L77.4733 15.0504C77.2855 14.9139 77.0312 14.9139 76.8434 15.0504L72.1935 18.4287C71.7736 18.7338 71.2086 18.3233 71.369 17.8296L73.145 12.3634C73.2168 12.1426 73.1382 11.9008 72.9504 11.7643L68.3005 8.38601C67.8806 8.08092 68.0964 7.4167 68.6155 7.4167H74.363C74.5952 7.4167 74.8009 7.26723 74.8726 7.04646L76.6487 1.58022Z" fill="#49D600"/>
<path d="M100.225 1.58022C100.385 1.08656 101.084 1.08656 101.244 1.58022L103.02 7.04646C103.092 7.26723 103.298 7.4167 103.53 7.4167H109.277C109.796 7.4167 110.012 8.08092 109.592 8.38601L104.942 11.7643C104.755 11.9008 104.676 12.1426 104.748 12.3634L106.524 17.8296C106.684 18.3233 106.119 18.7338 105.699 18.4287L101.049 15.0504C100.862 14.9139 100.607 14.9139 100.42 15.0504L95.7697 18.4287C95.3497 18.7338 94.7847 18.3233 94.9451 17.8296L96.7212 12.3634C96.793 12.1426 96.7144 11.9008 96.5266 11.7643L91.8767 8.38601C91.4568 8.08092 91.6726 7.4167 92.1917 7.4167H97.9392C98.1713 7.4167 98.3771 7.26723 98.4488 7.04646L100.225 1.58022Z" fill="#49D600"/>
<path d="M123.801 1.58022C123.961 1.08656 124.66 1.08656 124.82 1.58022L126.596 7.04646C126.668 7.26723 126.874 7.4167 127.106 7.4167H132.853C133.372 7.4167 133.588 8.08092 133.168 8.38601L128.518 11.7643C128.331 11.9008 128.252 12.1426 128.324 12.3634L130.1 17.8296C130.26 18.3233 129.695 18.7338 129.275 18.4287L124.625 15.0504C124.438 14.9139 124.183 14.9139 123.995 15.0504L119.346 18.4287C118.926 18.7338 118.361 18.3233 118.521 17.8296L120.297 12.3634C120.369 12.1426 120.29 11.9008 120.102 11.7643L115.453 8.38601C115.033 8.08092 115.249 7.4167 115.768 7.4167H121.515C121.747 7.4167 121.953 7.26723 122.025 7.04646L123.801 1.58022Z" fill="#49D600"/>
<path fill-rule="evenodd" clip-rule="evenodd" d="M145.743 6.41605L145.27 7.87212C145.205 8.07282 145.018 8.20871 144.807 8.20871L138.945 8.20871C138.473 8.20871 138.277 8.81254 138.659 9.0899L143.401 12.5356C143.572 12.6596 143.643 12.8795 143.578 13.0802L141.767 18.6554C141.621 19.1041 142.134 19.4773 142.516 19.2L145.743 16.8553V6.41605Z" fill="#49D600"/>
<path d="M10.4196 18.0835V14.6854H12.4225V12.3674H10.4196V3.07304H6.79635L0.630125 12.5699V14.6854H7.78655V18.0835H10.4196ZM7.78655 12.3674H3.21814L7.78655 5.43601V12.3674ZM15.2641 18.3311C16.1192 18.3311 16.8394 17.6109 16.8394 16.7558C16.8394 15.9006 16.1192 15.1804 15.2641 15.1804C14.4089 15.1804 13.6888 15.9006 13.6888 16.7558C13.6888 17.6109 14.4089 18.3311 15.2641 18.3311ZM29.4938 18.0835V15.7656H22.8325C26.8608 12.7275 29.4038 10.252 29.4038 7.48392C29.4038 4.49082 26.8608 2.848 23.9577 2.848C21.8648 2.848 19.7494 3.65816 18.4216 5.25597L19.9519 6.98882C20.8971 5.90861 22.2474 5.18846 24.0027 5.18846C25.3755 5.18846 26.7258 5.90861 26.7258 7.48392C26.7258 9.64435 24.4528 11.6022 18.6242 16.0131V18.0835H29.4938Z" fill="black"/>
</svg>
