<svg width="136" height="22" viewBox="0 0 136 22" fill="none" xmlns="http://www.w3.org/2000/svg">
<path d="M53.3262 1.58028C53.4866 1.08662 54.185 1.08662 54.3454 1.58028L56.1215 7.04652C56.1932 7.26729 56.399 7.41676 56.6311 7.41676H62.3786C62.8977 7.41676 63.1135 8.08098 62.6936 8.38607L58.0437 11.7644C57.8559 11.9008 57.7773 12.1427 57.8491 12.3635L59.6252 17.8297C59.7856 18.3234 59.2205 18.7339 58.8006 18.4288L54.1507 15.0504C53.963 14.914 53.7087 14.914 53.5209 15.0504L48.871 18.4288C48.4511 18.7339 47.886 18.3234 48.0464 17.8297L49.8225 12.3635C49.8943 12.1427 49.8157 11.9008 49.6279 11.7644L44.978 8.38607C44.5581 8.08098 44.7739 7.41676 45.293 7.41676H51.0405C51.2727 7.41676 51.4784 7.26729 51.5501 7.04652L53.3262 1.58028Z" fill="#49D600"/>
<path d="M76.9024 1.58028C77.0628 1.08662 77.7612 1.08662 77.9216 1.58028L79.6977 7.04652C79.7694 7.26729 79.9751 7.41676 80.2073 7.41676H85.9548C86.4739 7.41676 86.6897 8.08098 86.2698 8.38607L81.6199 11.7644C81.4321 11.9008 81.3535 12.1427 81.4252 12.3635L83.2013 17.8297C83.3617 18.3234 82.7967 18.7339 82.3768 18.4288L77.7269 15.0504C77.5391 14.914 77.2848 14.914 77.097 15.0504L72.4472 18.4288C72.0272 18.7339 71.4622 18.3234 71.6226 17.8297L73.3987 12.3635C73.4704 12.1427 73.3919 11.9008 73.2041 11.7644L68.5542 8.38607C68.1343 8.08098 68.3501 7.41676 68.8691 7.41676H74.6167C74.8488 7.41676 75.0546 7.26729 75.1263 7.04652L76.9024 1.58028Z" fill="#49D600"/>
<path d="M100.479 1.58028C100.639 1.08662 101.337 1.08662 101.498 1.58028L103.274 7.04652C103.346 7.26729 103.551 7.41676 103.783 7.41676H109.531C110.05 7.41676 110.266 8.08098 109.846 8.38607L105.196 11.7644C105.008 11.9008 104.93 12.1427 105.001 12.3635L106.778 17.8297C106.938 18.3234 106.373 18.7339 105.953 18.4288L101.303 15.0504C101.115 14.914 100.861 14.914 100.673 15.0504L96.0233 18.4288C95.6034 18.7339 95.0384 18.3234 95.1988 17.8297L96.9749 12.3635C97.0466 12.1427 96.968 11.9008 96.7802 11.7644L92.1304 8.38607C91.7104 8.08098 91.9263 7.41676 92.4453 7.41676H98.1929C98.425 7.41676 98.6307 7.26729 98.7025 7.04652L100.479 1.58028Z" fill="#49D600"/>
<path fill-rule="evenodd" clip-rule="evenodd" d="M126.707 8.13801C126.61 8.07884 126.534 7.98592 126.497 7.87218L124.685 2.297C124.54 1.84822 123.905 1.84822 123.759 2.297L121.947 7.87219C121.882 8.07289 121.695 8.20877 121.484 8.20877L115.622 8.20877C115.15 8.20877 114.954 8.8126 115.336 9.08996L120.078 12.5356C120.249 12.6597 120.32 12.8795 120.255 13.0802L118.444 18.6554C118.298 19.1042 118.812 19.4774 119.193 19.2L123.936 15.7544C124.107 15.6303 124.338 15.6303 124.508 15.7544L126.707 17.3519V8.13801Z" fill="#49D600"/>
<path d="M6.4649 18.3536C9.93059 18.3536 12.1135 16.5308 12.1135 13.9878C12.1135 11.6698 10.0881 10.4771 8.62533 10.342C10.1781 10.072 11.8885 8.90176 11.8885 6.89886C11.8885 4.37836 9.70554 2.84806 6.4649 2.84806C3.9669 2.84806 2.14404 3.86076 0.99631 5.21103L2.34658 6.85385C3.42679 5.77364 4.68704 5.18852 6.21735 5.18852C7.90518 5.18852 9.25545 5.90867 9.25545 7.30394C9.25545 8.67672 7.92769 9.28434 6.17234 9.28434C5.58722 9.28434 4.70955 9.28434 4.43949 9.26183V11.6248C4.66454 11.6023 5.54221 11.6023 6.17234 11.6023C8.31026 11.6023 9.503 12.2324 9.503 13.7177C9.503 15.113 8.35527 16.0132 6.37488 16.0132C4.77706 16.0132 3.17924 15.3155 2.21155 14.1903L0.79377 15.9232C1.80647 17.2734 3.78686 18.3536 6.4649 18.3536ZM15.9217 18.3311C16.7769 18.3311 17.497 17.611 17.497 16.7558C17.497 15.9007 16.7769 15.1805 15.9217 15.1805C15.0665 15.1805 14.3464 15.9007 14.3464 16.7558C14.3464 17.611 15.0665 18.3311 15.9217 18.3311ZM25.2324 18.3536C28.5856 18.3536 30.7685 16.1032 30.7685 13.3126C30.7685 10.117 28.4505 8.47418 25.75 8.47418C23.9721 8.47418 22.3968 9.55439 21.7217 10.5671C21.6992 10.4321 21.6992 10.297 21.6992 10.1395C21.6992 7.50648 23.162 5.18852 25.66 5.18852C27.1003 5.18852 27.9554 5.68362 28.7431 6.51629L29.9808 4.51339C28.9681 3.52319 27.5279 2.84806 25.66 2.84806C21.3166 2.84806 19.0437 6.26874 19.0437 10.6121C19.0437 14.7754 20.8215 18.3536 25.2324 18.3536ZM25.0974 16.0132C22.7794 16.0132 21.9017 14.1228 21.7442 12.5025C22.5094 11.4223 23.7471 10.7246 25.0299 10.7246C26.6727 10.7246 28.113 11.5573 28.113 13.4027C28.113 14.6179 27.0778 16.0132 25.0974 16.0132Z" fill="black"/>
</svg>
