<svg width="145" height="21" viewBox="0 0 145 21" fill="none" xmlns="http://www.w3.org/2000/svg">
<path d="M53.443 1.16427C53.5621 0.797805 54.0805 0.797805 54.1996 1.16427L56.0894 6.98047C56.1426 7.14436 56.2953 7.25531 56.4677 7.25531H62.5832C62.9685 7.25531 63.1287 7.74839 62.817 7.97487L57.8694 11.5695C57.73 11.6708 57.6717 11.8503 57.7249 12.0142L59.6147 17.8304C59.7338 18.1969 59.3144 18.5016 59.0026 18.2751L54.0551 14.6805C53.9157 14.5792 53.7269 14.5792 53.5875 14.6805L48.6399 18.2751C48.3282 18.5016 47.9088 18.1969 48.0278 17.8304L49.9176 12.0142C49.9709 11.8503 49.9125 11.6708 49.7731 11.5695L44.8256 7.97487C44.5138 7.74839 44.6741 7.25531 45.0594 7.25531H51.1749C51.3472 7.25531 51.4999 7.14436 51.5532 6.98047L53.443 1.16427Z" fill="#91FF50"/>
<path d="M76.5428 1.16427C76.6619 0.797805 77.1804 0.797805 77.2994 1.16427L79.1892 6.98047C79.2425 7.14436 79.3952 7.25531 79.5675 7.25531H85.683C86.0684 7.25531 86.2286 7.74839 85.9168 7.97487L80.9693 11.5695C80.8299 11.6708 80.7715 11.8503 80.8248 12.0142L82.7146 17.8304C82.8337 18.1969 82.4142 18.5016 82.1025 18.2751L77.1549 14.6805C77.0155 14.5792 76.8267 14.5792 76.6873 14.6805L71.7398 18.2751C71.428 18.5016 71.0086 18.1969 71.1277 17.8304L73.0175 12.0142C73.0707 11.8503 73.0124 11.6708 72.873 11.5695L67.9254 7.97487C67.6137 7.74839 67.7739 7.25531 68.1592 7.25531H74.2747C74.4471 7.25531 74.5998 7.14436 74.653 6.98047L76.5428 1.16427Z" fill="#91FF50"/>
<path d="M99.6429 1.16427C99.762 0.797805 100.28 0.797805 100.4 1.16427L102.289 6.98047C102.343 7.14436 102.495 7.25531 102.668 7.25531H108.783C109.168 7.25531 109.329 7.74839 109.017 7.97487L104.069 11.5695C103.93 11.6708 103.872 11.8503 103.925 12.0142L105.815 17.8304C105.934 18.1969 105.514 18.5016 105.203 18.2751L100.255 14.6805C100.116 14.5792 99.9268 14.5792 99.7874 14.6805L94.8399 18.2751C94.5281 18.5016 94.1087 18.1969 94.2278 17.8304L96.1176 12.0142C96.1708 11.8503 96.1125 11.6708 95.9731 11.5695L91.0255 7.97487C90.7138 7.74839 90.874 7.25531 91.2593 7.25531H97.3748C97.5472 7.25531 97.6999 7.14436 97.7531 6.98047L99.6429 1.16427Z" fill="#91FF50"/>
<path d="M122.743 1.16427C122.862 0.797805 123.38 0.797805 123.499 1.16427L125.389 6.98047C125.442 7.14436 125.595 7.25531 125.767 7.25531H131.883C132.268 7.25531 132.429 7.74839 132.117 7.97487L127.169 11.5695C127.03 11.6708 126.971 11.8503 127.025 12.0142L128.915 17.8304C129.034 18.1969 128.614 18.5016 128.302 18.2751L123.355 14.6805C123.215 14.5792 123.027 14.5792 122.887 14.6805L117.94 18.2751C117.628 18.5016 117.209 18.1969 117.328 17.8304L119.217 12.0142C119.271 11.8503 119.212 11.6708 119.073 11.5695L114.125 7.97487C113.814 7.74839 113.974 7.25531 114.359 7.25531H120.475C120.647 7.25531 120.8 7.14436 120.853 6.98047L122.743 1.16427Z" fill="#91FF50"/>
<path fill-rule="evenodd" clip-rule="evenodd" d="M144.781 5.2793L144.292 6.78556C144.243 6.93455 144.105 7.03542 143.948 7.03542H137.764C137.414 7.03542 137.268 7.48366 137.552 7.68956L142.554 11.3243C142.681 11.4164 142.734 11.5796 142.686 11.7286L140.775 17.6097C140.667 17.9428 141.048 18.2198 141.331 18.0139L144.781 15.5074V5.2793Z" fill="#91FF50"/>
<path d="M10.4196 18.084V14.6858H12.4225V12.3678H10.4196V3.0735H6.79635L0.630125 12.5704V14.6858H7.78655V18.084H10.4196ZM7.78655 12.3678H3.21814L7.78655 5.43647V12.3678ZM15.2641 18.3315C16.1192 18.3315 16.8394 17.6114 16.8394 16.7562C16.8394 15.9011 16.1192 15.1809 15.2641 15.1809C14.4089 15.1809 13.6888 15.9011 13.6888 16.7562C13.6888 17.6114 14.4089 18.3315 15.2641 18.3315ZM29.4938 18.084V15.766H22.8325C26.8608 12.7279 29.4038 10.2524 29.4038 7.48438C29.4038 4.49128 26.8608 2.84845 23.9577 2.84845C21.8648 2.84845 19.7494 3.65862 18.4216 5.25643L19.9519 6.98928C20.8971 5.90906 22.2474 5.18892 24.0027 5.18892C25.3755 5.18892 26.7258 5.90906 26.7258 7.48438C26.7258 9.64481 24.4528 11.6027 18.6242 16.0136V18.084H29.4938Z" fill="white"/>
</svg>
