<svg width="126" height="21" viewBox="0 0 126 21" fill="none" xmlns="http://www.w3.org/2000/svg">
<path d="M53.2609 1.21309C53.38 0.846632 53.8984 0.846633 54.0175 1.2131L55.9018 7.01229C55.955 7.17617 56.1077 7.28713 56.28 7.28713L62.3777 7.28713C62.763 7.28713 62.9232 7.7802 62.6115 8.00669L57.6784 11.5908C57.539 11.6921 57.4806 11.8716 57.5339 12.0355L59.4182 17.8347C59.5372 18.2011 59.1178 18.5059 58.8061 18.2794L53.873 14.6953C53.7336 14.594 53.5448 14.594 53.4054 14.6953L48.4723 18.2794C48.1606 18.5059 47.7411 18.2011 47.8602 17.8347L49.7445 12.0355C49.7977 11.8716 49.7394 11.6921 49.6 11.5908L44.6669 8.00669C44.3552 7.7802 44.5154 7.28713 44.9007 7.28713L50.9983 7.28713C51.1707 7.28713 51.3234 7.17617 51.3766 7.01229L53.2609 1.21309Z" fill="#91FF50"/>
<path d="M76.3068 1.21309C76.4259 0.846632 76.9443 0.846633 77.0634 1.2131L78.9477 7.01229C79.0009 7.17617 79.1536 7.28713 79.3259 7.28713L85.4236 7.28713C85.8089 7.28713 85.9691 7.7802 85.6574 8.00669L80.7243 11.5908C80.5849 11.6921 80.5265 11.8716 80.5798 12.0355L82.4641 17.8347C82.5831 18.2011 82.1637 18.5059 81.852 18.2794L76.9189 14.6953C76.7795 14.594 76.5907 14.594 76.4513 14.6953L71.5182 18.2794C71.2065 18.5059 70.787 18.2011 70.9061 17.8347L72.7904 12.0355C72.8436 11.8716 72.7853 11.6921 72.6459 11.5908L67.7128 8.00669C67.4011 7.7802 67.5613 7.28713 67.9466 7.28713L74.0442 7.28713C74.2166 7.28713 74.3693 7.17617 74.4225 7.01229L76.3068 1.21309Z" fill="#91FF50"/>
<path d="M99.3524 1.21309C99.4715 0.846632 99.99 0.846633 100.109 1.2131L101.993 7.01229C102.047 7.17617 102.199 7.28713 102.372 7.28713L108.469 7.28713C108.855 7.28713 109.015 7.7802 108.703 8.00669L103.77 11.5908C103.631 11.6921 103.572 11.8716 103.625 12.0355L105.51 17.8347C105.629 18.2011 105.209 18.5059 104.898 18.2794L99.9645 14.6953C99.8251 14.594 99.6364 14.594 99.4969 14.6953L94.5639 18.2794C94.2521 18.5059 93.8327 18.2011 93.9518 17.8347L95.836 12.0355C95.8893 11.8716 95.831 11.6921 95.6915 11.5908L90.7585 8.00669C90.4467 7.7802 90.6069 7.28713 90.9923 7.28713L97.0899 7.28713C97.2622 7.28713 97.4149 7.17617 97.4682 7.01229L99.3524 1.21309Z" fill="#91FF50"/>
<path fill-rule="evenodd" clip-rule="evenodd" d="M125.53 7.36944C125.447 7.32685 125.381 7.25238 125.351 7.15902L123.445 1.29478C123.337 0.961635 122.866 0.961635 122.757 1.29478L120.852 7.15902C120.804 7.30801 120.665 7.40888 120.508 7.40888H114.342C113.992 7.40888 113.846 7.85713 114.129 8.06302L119.118 11.6873C119.245 11.7794 119.298 11.9426 119.249 12.0916L117.344 17.9558C117.236 18.289 117.617 18.566 117.9 18.3601L122.889 14.7358C123.015 14.6438 123.187 14.6438 123.314 14.7358L125.53 16.3462V7.36944Z" fill="#91FF50"/>
<path d="M6.4649 17.2701C9.93059 17.2701 12.1135 15.4472 12.1135 12.9042C12.1135 10.5862 10.0881 9.39349 8.62533 9.25846C10.1781 8.98841 11.8885 7.81817 11.8885 5.81528C11.8885 3.29477 9.70554 1.76447 6.4649 1.76447C3.9669 1.76447 2.14404 2.77717 0.99631 4.12744L2.34658 5.77027C3.42679 4.69005 4.68704 4.10494 6.21735 4.10494C7.90518 4.10494 9.25545 4.82508 9.25545 6.22036C9.25545 7.59313 7.92769 8.20075 6.17234 8.20075C5.58722 8.20075 4.70955 8.20075 4.43949 8.17825V10.5412C4.66454 10.5187 5.54221 10.5187 6.17234 10.5187C8.31026 10.5187 9.503 11.1488 9.503 12.6341C9.503 14.0294 8.35527 14.9296 6.37488 14.9296C4.77706 14.9296 3.17924 14.2319 2.21155 13.1067L0.79377 14.8396C1.80647 16.1898 3.78686 17.2701 6.4649 17.2701ZM15.9217 17.2475C16.7769 17.2475 17.497 16.5274 17.497 15.6722C17.497 14.8171 16.7769 14.0969 15.9217 14.0969C15.0665 14.0969 14.3464 14.8171 14.3464 15.6722C14.3464 16.5274 15.0665 17.2475 15.9217 17.2475ZM25.2324 17.2701C28.5856 17.2701 30.7685 15.0196 30.7685 12.2291C30.7685 9.03342 28.4505 7.39059 25.75 7.39059C23.9721 7.39059 22.3968 8.4708 21.7217 9.4835C21.6992 9.34848 21.6992 9.21345 21.6992 9.05592C21.6992 6.4229 23.162 4.10494 25.66 4.10494C27.1003 4.10494 27.9554 4.60003 28.7431 5.4327L29.9808 3.4298C28.9681 2.4396 27.5279 1.76447 25.66 1.76447C21.3166 1.76447 19.0437 5.18515 19.0437 9.52851C19.0437 13.6918 20.8215 17.2701 25.2324 17.2701ZM25.0974 14.9296C22.7794 14.9296 21.9017 13.0392 21.7442 11.4189C22.5094 10.3387 23.7471 9.64104 25.0299 9.64104C26.6727 9.64104 28.113 10.4737 28.113 12.3191C28.113 13.5343 27.0778 14.9296 25.0974 14.9296Z" fill="white"/>
</svg>
