<svg width="28" height="28" viewBox="0 0 28 28" fill="none" xmlns="http://www.w3.org/2000/svg">
<path d="M23.9168 17.6168C23.6399 17.4793 23.3197 17.4573 23.0265 17.5558C22.7334 17.6542 22.4913 17.865 22.3535 18.1418C21.6151 19.6331 20.4914 20.8998 19.0988 21.8107C17.7063 22.7217 16.0955 23.2438 14.4333 23.3229C12.7712 23.4021 11.1181 23.0354 9.64524 22.2609C8.17243 21.4863 6.93348 20.3321 6.05671 18.9178C5.17994 17.5034 4.69725 15.8804 4.65862 14.2168C4.62 12.5532 5.02685 10.9095 5.83703 9.45601C6.64722 8.00251 7.83127 6.79204 9.26655 5.94999C10.7018 5.10794 12.3361 4.66493 14.0002 4.66684C15.7398 4.65931 17.4463 5.14241 18.9239 6.06072C20.4014 6.97902 21.5901 8.2953 22.3535 9.85851C22.4928 10.137 22.7369 10.3487 23.0323 10.4472C23.3277 10.5457 23.65 10.5227 23.9285 10.3835C24.207 10.2443 24.4188 10.0001 24.5172 9.70474C24.6157 9.40937 24.5928 9.08698 24.4535 8.80851C23.2829 6.45271 21.3505 4.56168 18.9699 3.44234C16.5893 2.323 13.9002 2.04107 11.3393 2.6423C8.77826 3.24352 6.49562 4.69262 4.86183 6.75438C3.22804 8.81614 2.33899 11.3696 2.33899 14.0002C2.33899 16.6308 3.22804 19.1842 4.86183 21.246C6.49562 23.3077 8.77826 24.7568 11.3393 25.358C13.9002 25.9593 16.5893 25.6773 18.9699 24.558C21.3505 23.4387 23.2829 21.5476 24.4535 19.1918C24.523 19.0534 24.5643 18.9026 24.5749 18.7481C24.5855 18.5935 24.5653 18.4385 24.5153 18.2918C24.4654 18.1452 24.3867 18.0101 24.284 17.8942C24.1812 17.7783 24.0564 17.684 23.9168 17.6168ZM24.5002 12.8335H13.3118L15.9952 10.1618C16.104 10.0531 16.1902 9.92392 16.2491 9.7818C16.308 9.63967 16.3383 9.48734 16.3383 9.33351C16.3383 9.17967 16.308 9.02734 16.2491 8.88522C16.1902 8.74309 16.104 8.61395 15.9952 8.50517C15.8864 8.39639 15.7573 8.31011 15.6151 8.25124C15.473 8.19237 15.3207 8.16207 15.1668 8.16207C15.013 8.16207 14.8607 8.19237 14.7186 8.25124C14.5764 8.31011 14.4473 8.39639 14.3385 8.50517L9.67185 13.1718C9.56563 13.2828 9.48237 13.4136 9.42685 13.5568C9.31016 13.8409 9.31016 14.1595 9.42685 14.4435C9.48237 14.5867 9.56563 14.7176 9.67185 14.8285L14.3385 19.4952C14.447 19.6045 14.576 19.6913 14.7182 19.7505C14.8603 19.8098 15.0128 19.8403 15.1668 19.8403C15.3209 19.8403 15.4734 19.8098 15.6155 19.7505C15.7577 19.6913 15.8867 19.6045 15.9952 19.4952C16.1045 19.3867 16.1913 19.2577 16.2506 19.1155C16.3098 18.9733 16.3403 18.8209 16.3403 18.6668C16.3403 18.5128 16.3098 18.3603 16.2506 18.2182C16.1913 18.076 16.1045 17.947 15.9952 17.8385L13.3118 15.1668H24.5002C24.8096 15.1668 25.1063 15.0439 25.3251 14.8251C25.5439 14.6063 25.6668 14.3096 25.6668 14.0002C25.6668 13.6908 25.5439 13.394 25.3251 13.1752C25.1063 12.9564 24.8096 12.8335 24.5002 12.8335Z" fill="#49D600"/>
</svg>
