<svg width="101" height="18" viewBox="0 0 101 16" fill="none" xmlns="http://www.w3.org/2000/svg">
<g filter="url(#filter0_d_153_2232)">
<path d="M9.44669 6.96694C9.2497 5.89905 8.75313 5.3035 7.85849 5.3035C7.14031 5.3035 6.64374 5.67726 6.64374 6.37139C6.64374 8.45377 11.8475 9.29987 11.8475 13.2675C11.8475 15.6497 10.21 16.8613 7.95698 16.8613C5.52748 16.8613 4.14037 15.4731 3.72177 13.1402L6.15127 12.4707C6.32363 13.5878 6.72171 14.5777 7.98571 14.5777C8.70389 14.5777 9.22508 14.1547 9.22508 13.4112C9.22508 11.1071 4.02135 10.2363 4.02135 6.59318C4.02135 4.48616 5.6588 3.02397 7.73947 3.02397C9.82014 3.02397 11.3837 4.48616 11.8023 6.57265L9.45079 6.96694H9.44669ZM12.9391 5.55404V3.27041H14.4739V-0.327555H17.2482V3.27041H19.1072V5.55404H17.2482V13.2428C17.2482 13.937 17.5437 14.3354 18.188 14.3354H19.1031V16.7176C18.7297 16.8162 18.4096 16.8654 17.716 16.8654C15.6353 16.8654 14.4698 15.9002 14.4698 13.863V5.55404H12.935H12.9391ZM20.6175 7.18873C20.7652 4.48616 22.4765 3.02397 25.0784 3.02397C27.6803 3.02397 29.1166 4.21508 29.1166 6.64247V15.1979C29.1166 15.6209 29.2151 16.1631 29.289 16.6108H26.6379C26.6132 16.237 26.5147 15.892 26.4901 15.5675C25.4477 16.4095 24.5818 16.8572 23.244 16.8572C21.3603 16.8572 20.4205 15.5675 20.4205 13.8548C20.4205 10.9263 22.3534 9.3163 26.3424 7.80482V7.01212C26.3424 5.89495 25.8951 5.29939 24.9799 5.29939C23.7159 5.29939 23.445 6.04281 23.3958 7.18463H20.6216L20.6175 7.18873ZM26.3424 9.84202C23.8144 11.2796 23.1947 12.1996 23.1947 13.3619C23.1947 14.2286 23.642 14.5777 24.4833 14.5777C25.2508 14.5777 25.8704 14.0068 26.3424 13.3373V9.84202ZM30.8279 5.55404V3.27041H32.3669V-0.327555H35.1411V3.27041H37.0002V5.55404H35.1411V13.2428C35.1411 13.937 35.4366 14.3354 36.0809 14.3354H37.0002V16.7176C36.6267 16.8162 36.3066 16.8654 35.6131 16.8654C33.5324 16.8654 32.3669 15.9002 32.3669 13.863V5.55404H30.8279ZM38.8305 2.16966V-0.360413H41.6047V2.16966H38.8305ZM38.8305 16.6108V3.27041H41.6047V16.6108H38.8305ZM49.3611 6.96694C49.1641 5.89905 48.6675 5.3035 47.7729 5.3035C47.0547 5.3035 46.5581 5.67726 46.5581 6.37139C46.5581 8.45377 51.7618 9.29987 51.7618 13.2675C51.7618 15.6497 50.1244 16.8613 47.8714 16.8613C45.4419 16.8613 44.0548 15.4731 43.6362 13.1402L46.0657 12.4707C46.238 13.5878 46.6361 14.5777 47.9001 14.5777C48.6183 14.5777 49.1395 14.1547 49.1395 13.4112C49.1395 11.1071 43.9357 10.2363 43.9357 6.59318C43.9357 4.48616 45.5691 3.02397 47.6539 3.02397C49.7386 3.02397 51.2981 4.48616 51.7167 6.57265L49.3652 6.96694H49.3611ZM52.8576 5.55404V3.27041H54.3924V-0.327555H57.1667V3.27041H59.0257V5.55404H57.1667V13.2428C57.1667 13.937 57.4621 14.3354 58.1065 14.3354H59.0216V16.7176C58.6482 16.8162 58.3281 16.8654 57.6345 16.8654C55.5538 16.8654 54.3883 15.9002 54.3883 13.863V5.55404H52.8535H52.8576ZM60.536 7.18873C60.6837 4.48616 62.395 3.02397 64.9969 3.02397C67.5987 3.02397 69.0351 4.21508 69.0351 6.64247V15.1979C69.0351 15.6209 69.1336 16.1631 69.2075 16.6108H66.5564C66.5317 16.237 66.4332 15.892 66.4086 15.5675C65.3662 16.4095 64.5003 16.8572 63.1624 16.8572C61.2788 16.8572 60.339 15.5675 60.339 13.8548C60.339 10.9263 62.2719 9.3163 66.2609 7.80482V7.01212C66.2609 5.89495 65.8135 5.29939 64.8984 5.29939C63.6344 5.29939 63.3635 6.04281 63.3143 7.18463H60.5401L60.536 7.18873ZM66.2609 9.84202C63.7329 11.2796 63.1132 12.1996 63.1132 13.3619C63.1132 14.2286 63.5605 14.5777 64.4018 14.5777C65.1692 14.5777 65.7889 14.0068 66.2609 13.3373V9.84202ZM91.0114 -0.339876H75.0268C74.6944 -0.339876 74.4235 -0.0687972 74.4235 0.263891V11.1646C74.4522 11.1646 74.481 11.1605 74.5097 11.1605C74.5097 11.1605 77.0992 11.1071 78.2114 10.532C79.5821 9.81738 80.604 8.34288 80.604 8.34288C80.8625 7.96911 81.1498 7.55428 81.2401 7.42285C81.3303 7.29142 81.4247 7.15998 81.4453 7.13123C81.4699 7.10248 81.5766 6.95051 81.6381 6.86015C81.6997 6.76979 81.9664 6.38782 82.225 6.01406C82.225 6.01406 83.7845 3.75917 85.9965 2.61325C88.3931 1.36874 91.5613 1.50428 91.5613 1.50428C91.5777 1.50428 91.5942 1.50428 91.6106 1.50839V0.263891C91.6106 -0.0687972 91.3438 -0.339876 91.0073 -0.339876H91.0114ZM87.757 5.99352C86.3863 6.70408 85.3686 8.18269 85.3686 8.18269C85.11 8.55645 84.8227 8.97129 84.7325 9.10272C84.6422 9.23415 84.5478 9.36558 84.5273 9.39433C84.5026 9.42308 84.3959 9.57505 84.3344 9.66541C84.2728 9.75577 84.0102 10.1377 83.7475 10.5115C83.7475 10.5115 82.188 12.7664 79.9761 13.9123C77.682 15.1075 74.6779 15.0295 74.4317 15.0213V16.2576C74.4317 16.5903 74.7026 16.8613 75.035 16.8613H91.0196C91.352 16.8613 91.6229 16.5903 91.6229 16.2576V5.34457C91.5736 5.3569 91.5203 5.361 91.4669 5.361C91.4669 5.361 88.8774 5.4144 87.7652 5.99352H87.757Z" fill="white"/>
</g>
<defs>
<filter id="filter0_d_153_2232" x="0.631546" y="-1.39049" width="100.262" height="29.5867" filterUnits="userSpaceOnUse" color-interpolation-filters="sRGB">
<feFlood flood-opacity="0" result="BackgroundImageFix"/>
<feColorMatrix in="SourceAlpha" type="matrix" values="0 0 0 0 0 0 0 0 0 0 0 0 0 0 0 0 0 0 127 0" result="hardAlpha"/>
<feOffset dx="3.09023" dy="5.15038"/>
<feGaussianBlur stdDeviation="3.09023"/>
<feColorMatrix type="matrix" values="0 0 0 0 0 0 0 0 0 0 0 0 0 0 0 0 0 0 0.3 0"/>
<feBlend mode="normal" in2="BackgroundImageFix" result="effect1_dropShadow_153_2232"/>
<feBlend mode="normal" in="SourceGraphic" in2="effect1_dropShadow_153_2232" result="shape"/>
</filter>
</defs>
</svg>
