<svg width="21" height="20" viewBox="0 0 21 20" fill="none" xmlns="http://www.w3.org/2000/svg">
<path d="M19.6399 11C19.4955 10.8807 19.3206 10.8043 19.135 10.7795C18.9493 10.7548 18.7605 10.7827 18.5899 10.86C17.5325 11.3439 16.3828 11.5929 15.2199 11.59C13.0687 11.5874 11.0059 10.7344 9.48103 9.2171C7.9562 7.69976 7.09309 5.64111 7.07989 3.49C7.08445 2.81583 7.16836 2.14454 7.32989 1.49C7.36417 1.31554 7.35131 1.13509 7.29265 0.967253C7.23398 0.799414 7.13163 0.65025 6.99613 0.53513C6.86064 0.42001 6.6969 0.343097 6.52179 0.312313C6.34668 0.28153 6.16652 0.29799 5.99989 0.359999C4.43222 1.06491 3.06946 2.15676 2.03965 3.53298C1.00984 4.9092 0.346771 6.52462 0.11274 8.22748C-0.12129 9.93034 0.0813968 11.6647 0.701761 13.2678C1.32213 14.8708 2.3398 16.2898 3.65919 17.3915C4.97858 18.4932 6.55637 19.2414 8.24434 19.5658C9.9323 19.8903 11.675 19.7803 13.3088 19.2462C14.9426 18.7122 16.4139 17.7716 17.5843 16.5128C18.7547 15.254 19.586 13.7183 19.9999 12.05C20.0503 11.859 20.043 11.6573 19.979 11.4705C19.9149 11.2836 19.7969 11.1199 19.6399 11ZM10.1399 17.69C8.46165 17.6782 6.82809 17.1479 5.46288 16.1717C4.09767 15.1956 3.06756 13.8213 2.51357 12.2371C1.95959 10.6529 1.90883 8.93618 2.36823 7.322C2.82763 5.70782 3.77475 4.2751 5.07989 3.22V3.49C5.08254 6.17848 6.15171 8.75609 8.05275 10.6571C9.9538 12.5582 12.5314 13.6274 15.2199 13.63C15.9258 13.6326 16.6299 13.5588 17.3199 13.41C16.6298 14.7155 15.5964 15.8078 14.331 16.5691C13.0657 17.3304 11.6166 17.7318 10.1399 17.73V17.69Z" fill="#CCCCCC"/>
</svg>
